<svg width="64" height="64" viewBox="0 0 64 64" fill="none" xmlns="http://www.w3.org/2000/svg">
<g clip-path="url(#clip0_5602_3704)">
<path d="M37.2245 63.3467H11.1021C5.33124 63.3467 0.653076 58.6685 0.653076 52.8977V26.7753C0.653076 21.0044 5.33124 16.3263 11.1021 16.3263H37.2245C42.9953 16.3263 47.6735 21.0044 47.6735 26.7753V52.8977C47.6735 58.6685 42.9953 63.3467 37.2245 63.3467Z" stroke="#D100C9" stroke-width="2"/>
<path d="M52.898 47.6738H26.7755C21.0047 47.6738 16.3265 42.9957 16.3265 37.2248V11.1024C16.3265 5.33159 21.0047 0.653419 26.7755 0.653419H52.898C58.6688 0.653419 63.3469 5.33159 63.3469 11.1024V37.2248C63.3469 42.9957 58.6688 47.6738 52.898 47.6738Z" stroke="#D100C9" stroke-width="2"/>
<path d="M45.0612 55.5098H18.9387C13.1679 55.5098 8.48975 50.8316 8.48975 45.0608V18.9383C8.48975 13.1675 13.1679 8.48936 18.9387 8.48936H45.0612C50.832 8.48936 55.5102 13.1675 55.5102 18.9383V45.0608C55.5102 50.8316 50.832 55.5098 45.0612 55.5098Z" stroke="#D100C9" stroke-width="2"/>
</g>
<defs>
<clipPath id="clip0_5602_3704">
<rect width="64" height="64" fill="white"/>
</clipPath>
</defs>
</svg>
