<svg width="64" height="64" viewBox="0 0 64 64" fill="none" xmlns="http://www.w3.org/2000/svg">
<g clip-path="url(#clip0_5602_3689)">
<path d="M51.5919 26.1224C51.5919 40.1888 40.1888 51.5918 26.1225 51.5918C12.0561 51.5918 0.653076 40.1888 0.653076 26.1224C0.653076 12.0561 12.0561 0.653023 26.1225 0.653023C40.1888 0.653023 51.5919 12.0561 51.5919 26.1224Z" stroke="#D100C9" stroke-width="2"/>
<path d="M63.3469 32.0003C63.3469 46.0667 51.9439 57.4697 37.8775 57.4697C23.8112 57.4697 12.4081 46.0667 12.4081 32.0003C12.4081 17.934 23.8112 6.53095 37.8775 6.53095C51.9439 6.53095 63.3469 17.934 63.3469 32.0003Z" stroke="#D100C9" stroke-width="2"/>
<path d="M51.5919 37.8773C51.5919 51.9436 40.1888 63.3467 26.1225 63.3467C12.0561 63.3467 0.653076 51.9436 0.653076 37.8773C0.653076 23.8109 12.0561 12.4079 26.1225 12.4079C40.1888 12.4079 51.5919 23.8109 51.5919 37.8773Z" stroke="#D100C9" stroke-width="2"/>
</g>
<defs>
<clipPath id="clip0_5602_3689">
<rect width="64" height="64" fill="white"/>
</clipPath>
</defs>
</svg>
