<svg xmlns="http://www.w3.org/2000/svg" viewBox="0 0 514 146.2"><title>bbc-black</title><path d="M358.7,0H514V146.2H358.7ZM482.4,47.2c0-5.9-.1-11.7,0-17.4a2.14,2.14,0,0,0-1.7-2.4c-4.4-1.5-8.8-3.3-13.3-4.6-17.2-5-34.3-5.2-51.1,1.4-22.5,8.8-36.4,30.6-33.8,54.3,2.1,19.3,12,34.1,29.7,42.1,23.5,10.7,47.1,8.5,70.1-2.6a2.87,2.87,0,0,0,1.1-2q.15-8.55,0-17.1c0-.4-.1-.8-.1-1-5.4,2.6-10.7,5.4-16.1,7.7-13.3,5.6-27,6.6-40.9,2-28-9.3-31.5-43.7-13.7-60.7,8.4-8,18.9-11.1,30.3-11.2,9.7-.1,18.8,2.5,27.7,6.1C474.5,43.3,478.3,45.3,482.4,47.2Z"/><path d="M334.7,146.2H179.5V0H334.7ZM220.2,125.7h2.6c12.7,0,25.4.2,38.1-.1a61.37,61.37,0,0,0,14.7-2.1c7.3-1.9,13.8-5.6,18-12.1,8.2-12.6,5.3-32.6-13.6-40.1-1.5-.6-3.1-1.1-4.8-1.7a8.11,8.11,0,0,0,.8-.6c17-9.5,14.9-31.2,3.2-40.6-6.8-5.5-14.8-7.8-23.4-8-11.2-.2-22.4-.1-33.5-.1-.7,0-1.4.1-2.1.1Z"/><path d="M0,0H155.3V146.2H0ZM95.8,69.7a3.47,3.47,0,0,1,.9-.6c16.9-9.4,14.8-31,3.4-40.4-6.9-5.7-15-8-23.7-8.2-11.2-.2-22.4-.1-33.5-.1-.6,0-1.3.1-2,.1V125.7H82.7a47.26,47.26,0,0,0,18.2-3.6c11.8-4.9,17.9-14,17.7-26.5-.1-10.7-7.2-20.1-18.5-24.4C98.8,70.7,97.4,70.3,95.8,69.7Z"/><path d="M239,109.3V80.8a9.7,9.7,0,0,1,1.7-.1h19.4A22.86,22.86,0,0,1,271,83.1c4.5,2.3,7.2,5.9,7.4,11.1a12.65,12.65,0,0,1-6.8,12.3,23.37,23.37,0,0,1-11.2,2.9c-6.7.1-13.5,0-20.2,0A2.46,2.46,0,0,1,239,109.3Z"/><path d="M239,63.8V36.9c3.8,0,7.6-.1,11.3,0a51.19,51.19,0,0,1,8.7.8c5.7,1.2,9.4,5.2,10,10.2a12.82,12.82,0,0,1-7,13.5,18.52,18.52,0,0,1-7.1,2.3C249.6,64,244.4,63.8,239,63.8Z"/><path d="M59.6,109.3V81c.2-.1.2-.2.3-.2,8.8.1,17.7.1,26.5.6,2.2.1,4.6,1.3,6.6,2.5a13,13,0,0,1-.2,22.3,22.42,22.42,0,0,1-11.5,3.2c-6.9.1-13.8,0-20.6,0A2.23,2.23,0,0,1,59.6,109.3Z"/><path d="M59.6,63.8V37.1c.2-.1.3-.2.4-.2,5.9.1,11.9-.2,17.8.4,8.2.9,12.6,6.7,11.7,14.3A11.68,11.68,0,0,1,83.1,61a22.64,22.64,0,0,1-8.2,2.7C69.9,64.2,64.9,63.8,59.6,63.8Z"/></svg>