<svg xmlns="http://www.w3.org/2000/svg" viewBox="0 0 362.60294 99.74163"><defs><style>.a{fill-rule:evenodd;}</style></defs><path class="a" d="M119.88293,63.75951c1.59-.1,3.56-.1,4.64-.1,7.44,0,11.44,1.2,14.62,3.8a13.72553,13.72553,0,0,1,4.89,11.15,14.00922,14.00922,0,0,1-4.96,11.2c-2.92,2.4-6.87,3.75-14.49,3.75-4.13,0-4.7-.47-4.7-3.75v-26.05m-7.06,25.64c0,3.49-.64,4.22-6.04,4.22v1.41h19.77c18.63,0,25.18-9.49,25.18-17.15a13.97364,13.97364,0,0,0-5.47-11.1c-3.88-3.18-10.81-4.59-20.41-4.59-2.42,0-5.66,0-9.09.1-2.67.1-8.14.31-9.98.31v1.41c4.83-.05,6.04.78,6.04,4.58Z"/><path d="M157.19293,64.0195c4.39-.05,5.21,1.09,5.21,3.91v21.21c0,2.97-.19,4.59-5.21,4.48v1.41h17.74v-1.41c-4.58.1-5.47-.94-5.47-4.85v-20.26c0-3.7,1.21-4.48,5.47-4.48v-1.41h-17.74v1.4"/><path d="M181.65293,95.49951h1.53a2.25122,2.25122,0,0,1,1.71-.57c1.78,0,3.75.94,8.52.94,8.14,0,13.67-3.65,13.67-9.02,0-10.06-20.09-12.14-20.09-19.12,0-2.29,2.16-4.27,6.23-4.27a11.25571,11.25571,0,0,1,10.36,6.62h1.91l-1.4-8.08h-1.59a2.26607,2.26607,0,0,1-1.78.62,20.781,20.781,0,0,1-3.37-.42,28.39742,28.39742,0,0,0-4.9-.42c-6.8,0-11.64,3.13-11.64,7.61,0,9.07,20.03,11.93,20.03,19.23,0,3.13-3.24,5.37-7.88,5.37-5.47,0-9.41-2.71-11-7.5h-1.91l1.6,9.01"/><path d="M207.01293,70.68951h1.84c.96-5.42,2.22-5.73,5.97-5.73h9.09v24.55c0,3.44-1.02,4.12-7.38,4.12v1.41h21.81v-1.41c-6.68,0-7.38-.57-7.38-4.12v-24.55h9.09c3.82,0,5.09.31,5.98,5.73h1.84l-1.14-8.96h-1.72c-.38.78-.89.89-4.13.89h-26.89a20.12955,20.12955,0,0,1-3.12-.15,1.43369,1.43369,0,0,1-1.02-.73h-1.72l-1.12,8.95"/><path d="M284.30293,95.02951l.95-8.18h-1.72c-1.71,5.11-2.99,5.84-9.41,5.84h-7.06c-3.25,0-3.75-.52-3.75-3.75v-9.48h9.85c3.5,0,4.32.47,4.77,4.17h1.72v-10.49h-1.72c-.38,3.6-1.08,3.96-4.77,3.96h-9.85v-12.14h11.19c4.07,0,5.08.1,6.35,4.38l.32,1.09h1.71l-.57-7.82h-32.49v1.41c4.33,0,6.42.11,6.42,3.54v22.46c0,2.92-1.28,3.6-6.42,3.6v1.41h34.48"/><path d="M321.03294,95.02951l4.9-7.87h-1.91c-4.76,5.32-5.15,5.52-10.55,5.52h-6.55c-2.92,0-3.43-.42-3.43-2.55v-21.99c0-3.91.76-4.12,7.63-4.12v-1.41h-20.85v1.41c5.72-.1,6.17.94,6.17,4.48v20.63c0,4.12-1.08,4.48-6.17,4.48v1.41h30.76"/><path d="M357.71293,95.02951l4.89-7.87h-1.91c-4.77,5.32-5.15,5.52-10.55,5.52h-6.55c-2.92,0-3.43-.42-3.43-2.55v-21.99c0-3.91.76-4.12,7.63-4.12v-1.41h-20.86v1.41c5.72-.1,6.17.94,6.17,4.48v20.63c0,4.12-1.08,4.48-6.17,4.48v1.41h30.77994"/><path d="M26.04293,38.52951c.49-3.2,3.2-5.42,6.05-4.95s4.77,3.45,4.27,6.65c-.49,3.2-3.2,5.42-6.05,4.95S25.55293,41.72951,26.04293,38.52951Z"/><path d="M38.22292,40.52951c.49-3.2,3.2-5.42,6.05-4.95s4.76,3.44,4.28,6.65c-.49,3.21-3.2,5.42-6.05,4.95C39.64293,46.71951,37.72292,43.73951,38.22292,40.52951Z"/><path d="M50.39293,42.53951c.49-3.2,3.2-5.42,6.05-4.95s4.77,3.45,4.28,6.65-3.2,5.42-6.05,4.95C51.81292,48.71951,49.90292,45.73951,50.39293,42.53951Z"/><path d="M42.49293,53.36951c.49-3.2,3.2-5.42,6.05-4.95s4.76,3.45,4.27,6.65c-.49,3.21-3.2,5.42-6.05,4.95S42.00293,56.56951,42.49293,53.36951Z"/><path d="M30.33293,51.28951c.49-3.2,3.2-5.42,6.05-4.95s4.76,3.45,4.27,6.65-3.2,5.42-6.05,4.95S29.84293,54.48951,30.33293,51.28951Z"/><path d="M34.60293,63.7695c.49-3.2,3.2-5.42,6.05-4.95s4.77,3.45,4.27,6.65c-.49,3.2-3.2,5.42-6.05,4.95C36.03293,69.9495,34.11293,66.96951,34.60293,63.7695Z"/><path class="a" d="M39.41293,96.36951c2.37,1.63,3.1,2.13,4.75,3.14.71.55,1.12-.02,1.1-.25,3.27-28.82,115.63-30.98,17.88-97.34-.23-.17-.45.05-.36.32.92,2.84,1.56,8.14.18,10.89-5.42-4.18-11.32-8.12-19.09-13.06-.34-.22-.73.11-.47.6,13.65,33.62-101.16,21.96-3.99,95.7m10.18-83.72c-4.74,25.49-82.39,17.41-14.03,71.35a.29762.29762,0,0,1,.13.31c-.01,0-.02-.06.02-.23,7.9-30.26,82.7-25.93,14.61-71.8C49.96293,12.06951,49.70293,11.67951,49.59293,12.64951Zm-8.9,74.98c1.15.97,1.16.89,1.99,1.54,15.45-27.71,91.98-25.53,27.36-74.8a16.04923,16.04923,0,0,1-.78,3.53C119.58293,60.70951,48.53293,61.09951,40.69293,87.6295Z"/></svg>