<svg xmlns="http://www.w3.org/2000/svg" viewBox="0 0 322.85001 157.85939"><defs><style>.a{fill-rule:evenodd;}</style></defs><path class="a" d="M221.25927,14.19754l-68.893,35.725L140.5418,42.63579l49.9342-25.7554c-11.85755-4.96825-30.26657-4.57078-30.26657-4.57078C104.1676,14.95934,105.5057,42.64242,105.5057,42.64242c0,6.53821,6.24674,27.23924,54.70373,29.67038,58.71145-1.86143,61.434-31.67092,53.65708-40.44816l18.26991-9.67814a30.15383,30.15383,0,0,1,9.9365,20.45593c.19209,14.69277-19.27017,40.064-81.84359,41.97176C97.74864,80.99068,81.009,57.52729,80.81685,42.64243,80.62474,27.90992,98.70254,2.05516,160.22933.00824,201.6115-.39585,221.25927,14.19754,221.25927,14.19754Z"/><path class="a" d="M322.83674,155.13678a2.19926,2.19926,0,0,1-2.33578,2.05371l-.00262-.00016H305.77246a2.39028,2.39028,0,0,1-.56968-.04638,3.26571,3.26571,0,0,1-.91416-.42394c-.13913-.09936-25.04-25.04-25.04-25.04v23.46336a2.186,2.186,0,0,1-2.2854,2.05355H262.18438a2.18606,2.18606,0,0,1-2.292-2.05355V110.82665a2.15952,2.15952,0,0,1,2.26519-2.04843l.02685.00151h14.78551a1.921,1.921,0,0,1,1.57.52333l24.94721,24.94723V110.82665a2.15291,2.15291,0,0,1,2.25225-2.04874l.03315.00182H320.558a2.15951,2.15951,0,0,1,2.2905,2.02007l.00154.02685v44.31013ZM221.882,119.46478V127.096a1.07976,1.07976,0,0,0,1.11076,1.04785l.02863-.00121h20.74741a2.15953,2.15953,0,0,1,2.29021,2.02041l.00182.03313v5.5777a2.15953,2.15953,0,0,1-2.25892,2.05536l-.03311-.00181H223.02134a1.07975,1.07975,0,0,0-1.13817,1.018l-.00122.02863v7.63122a1.07315,1.07315,0,0,0,1.13939,1.00028h25.6229a2.19266,2.19266,0,0,1,2.28524,2.096l.00017.00394v5.53132a2.19929,2.19929,0,0,1-2.33178,2.05355H204.811a2.16615,2.16615,0,0,1-2.29092-2.03376l-.00109-.01979V110.82665a2.15952,2.15952,0,0,1,2.26519-2.04843l.02682.00151h43.8332a2.15294,2.15294,0,0,1,2.28359,2.01378l.00182.03314v5.48494a2.23242,2.23242,0,0,1-2.28541,2.14628h-25.6229a1.04667,1.04667,0,0,0-1.13583.94913q-.00258.02881-.00356.05776Zm-48.35761,2.239c0-1.04664-.9539-2.05355-3.14655-2.81534a30.44111,30.44111,0,0,0-8.923-1.093,31.58054,31.58054,0,0,0-8.91634,1.093c-2.0999.71542-3.14656,1.7687-3.14656,2.81534v22.56246c0,1.04664.95391,2.04692,3.14656,2.80871a30.40574,30.40574,0,0,0,8.91634,1.09965,31.87147,31.87147,0,0,0,8.923-1.09965c2.14627-.71543,3.14655-1.76207,3.14655-2.80871V139.5895a1.17913,1.17913,0,0,0-1.23874-1.09964h-8.30692a2.44437,2.44437,0,0,1-2.5305-2.2854v-5.15373a2.398,2.398,0,0,1,2.48412-2.2854h26.49733a2.398,2.398,0,0,1,2.47749,2.2854v14.73913c0,8.43939-16.97816,12.06953-31.43246,12.06953s-31.47881-3.63014-31.47881-12.06953V120.1802c0-8.446,16.97816-12.06953,31.47881-12.06953s31.43246,3.62351,31.43246,12.06953v1.52359a2.35827,2.35827,0,0,1-2.47147,2.23933l-.006-.00031H175.9952a2.28643,2.28643,0,0,1-2.47749-2.14627v-.09275Zm-53.13375,33.433a2.19926,2.19926,0,0,1-2.33578,2.05371l-.0026-.00016H103.30644a2.39037,2.39037,0,0,1-.56968-.04638,2.74227,2.74227,0,0,1-.90753-.43057c-.19211-.09936-25.04-25.04-25.04-25.04v23.46338a2.19927,2.19927,0,0,1-2.33578,2.05371l-.00261-.00016H59.71833a2.19928,2.19928,0,0,1-2.33822-2.05094l-.00016-.00261V110.82665a2.19928,2.19928,0,0,1,2.33838-2.04692h14.706a2.09328,2.09328,0,0,1,1.623.52333l24.90086,24.94723V110.82665a2.19927,2.19927,0,0,1,2.33176-2.04692h14.73913a2.19928,2.19928,0,0,1,2.33839,2.04692v44.31013Zm-101.021-35.672V127.096a1.11951,1.11951,0,0,0,1.146,1.04664H41.3027a2.15954,2.15954,0,0,1,2.29021,2.02043l.00182.03311v5.5777a2.19929,2.19929,0,0,1-2.33579,2.05371l-.0026-.00016H20.50893a1.11951,1.11951,0,0,0-1.146,1.04663v7.63122a1.11289,1.11289,0,0,0,1.146,1.00028H46.12522a2.239,2.239,0,0,1,2.33176,2.09992v5.53132a2.19927,2.19927,0,0,1-2.33176,2.05355H2.33839A2.2059,2.2059,0,0,1,0,155.1368V110.82665a2.19266,2.19266,0,0,1,2.292-2.04692h43.8332a2.19927,2.19927,0,0,1,2.33176,2.04692v5.48494a2.27215,2.27215,0,0,1-2.33176,2.14628H20.50893a1.07979,1.07979,0,0,0-1.146,1.00691Z"/></svg>