<svg xmlns="http://www.w3.org/2000/svg" xmlns:xlink="http://www.w3.org/1999/xlink" viewBox="0 0 494.33603 169.98781"><defs><style>.a,.b,.c,.d,.e,.f{isolation:isolate;font-size:29.76647px;font-family:Montserrat-SemiBold, Montserrat;font-weight:600;}.a{letter-spacing:-0.03501em;}.c{letter-spacing:-0.01699em;}.d{letter-spacing:0.01703em;}.e{letter-spacing:0.03501em;}.f{letter-spacing:0.01699em;}.g{letter-spacing:-0.00299em;}.h{clip-path:url(#a);}.i{clip-path:url(#b);}.j{clip-path:url(#c);}.k{clip-path:url(#d);}.l{clip-path:url(#e);}</style><clipPath id="a" transform="translate(20.18 21.7402)"><rect x="176.57745" y="49.47389" width="16.53153" height="49.80726" transform="translate(-2.48737 142.24711) rotate(-41.83433)"/></clipPath><clipPath id="b" transform="translate(20.18 21.7402)"><path d="M136.14712,5.95325A43.63408,43.63408,0,0,0,118.97826,22.378a45.26621,45.26621,0,0,0-6.21908,23.49426,45.26606,45.26606,0,0,0,6.21908,23.49424,43.63417,43.63417,0,0,0,17.16886,16.42472,50.83337,50.83337,0,0,0,24.55735,5.90013,52.91035,52.91035,0,0,0,17.85987-2.97664l-10.9498-12.22551a36.25481,36.25481,0,0,1-6.91007.691,32.39318,32.39318,0,0,1-16.05264-3.98658A28.79819,28.79819,0,0,1,133.43626,61.978a32.10693,32.10693,0,0,1-4.09289-16.10578,32.10665,32.10665,0,0,1,4.09289-16.10578,29.15406,29.15406,0,0,1,11.21557-11.21558,34.31263,34.31263,0,0,1,32.10528,0,28.79813,28.79813,0,0,1,11.21556,11.21558,32.10691,32.10691,0,0,1,4.0929,16.10578,32.21768,32.21768,0,0,1-2.44509,12.70392L201.155,71.43952c.47841-.691.90364-1.32886,1.32886-2.073a45.05064,45.05064,0,0,0,6.21908-23.5474,45.18552,45.18552,0,0,0-6.21908-23.5474A44.24871,44.24871,0,0,0,185.315,5.90014a53.95068,53.95068,0,0,0-49.16787.05311"/></clipPath><clipPath id="c" transform="translate(20.18 21.7402)"><rect x="327.18409" y="0.05311" width="16.58415" height="89.29939"/></clipPath><clipPath id="d" transform="translate(20.18 21.7402)"><path d="M384.4845,14.08587h21.687a37.92947,37.92947,0,0,1,17.27518,3.774A26.42256,26.42256,0,0,1,434.92805,28.597,31.83361,31.83361,0,0,1,438.96777,44.756a31.579,31.579,0,0,1-4.03972,16.159,27.05018,27.05018,0,0,1-11.48134,10.7372,38.08734,38.08734,0,0,1-17.27518,3.77395h-21.687ZM367.90035.05311V89.3525H406.9157a56.68367,56.68367,0,0,0,25.40784-5.52807,40.72539,40.72539,0,0,0,17.222-15.68055,44.24294,44.24294,0,0,0,6.11275-23.38794A44.24287,44.24287,0,0,0,449.54558,21.368a41.03652,41.03652,0,0,0-17.222-15.68055C424.93506,1.96664,416.4835.15939,406.9157.15939H367.90035Z"/></clipPath><clipPath id="e" transform="translate(20.18 21.7402)"><polygon points="2.039 0.053 2.039 89.353 65.292 89.353 65.292 75.32 18.623 75.32 18.623 0.053 2.039 0.053"/></clipPath></defs><text class="a" transform="translate(20.17992 152.69152)">I</text><text class="a" transform="translate(20.17992 152.69152)">I</text><text class="b" transform="translate(28.47191 152.69152)">NTELLIG</text><text class="b" transform="translate(28.47191 152.69152)">NTELLIG</text><text class="c" transform="translate(158.59398 152.69152)">E</text><text class="c" transform="translate(158.59398 152.69152)">E</text><text class="d" transform="translate(177.94164 152.69152)">N</text><text class="d" transform="translate(177.94164 152.69152)">N</text><text class="b" transform="translate(202.65844 152.69152)">T</text><text class="b" transform="translate(202.65844 152.69152)">T</text><text class="e" transform="translate(220.5725 152.69152)"> </text><text class="e" transform="translate(220.5725 152.69152)"> </text><text class="f" transform="translate(229.9807 152.69152)">T</text><text class="f" transform="translate(229.9807 152.69152)">T</text><text class="b" transform="translate(248.47777 152.69152)"><tspan class="g">E</tspan><tspan x="19.85449" y="0">C</tspan></text><text class="b" transform="translate(248.47777 152.69152)"><tspan class="g">E</tspan><tspan x="19.85449" y="0">C</tspan></text><text class="c" transform="translate(290.04516 152.69152)">H</text><text class="c" transform="translate(290.04516 152.69152)">H</text><text class="b" transform="translate(313.59203 152.69152)">NOL</text><text class="b" transform="translate(313.59203 152.69152)">NOL</text><text class="f" transform="translate(380.56664 152.69152)">O</text><text class="f" transform="translate(380.56664 152.69152)">O</text><text class="b" transform="translate(406.24047 152.69152)">G</text><text class="b" transform="translate(406.24047 152.69152)">G</text><text class="a" transform="translate(429.20336 152.69152)">I</text><text class="a" transform="translate(429.20336 152.69152)">I</text><text class="b" transform="translate(437.54809 152.69152)">ES</text><text class="b" transform="translate(437.54809 152.69152)">ES</text><rect x="176.57745" y="49.47389" width="16.53153" height="49.80726" transform="translate(17.69262 163.98731) rotate(-41.83433)"/><rect x="176.57745" y="49.47389" width="16.53153" height="49.80726" transform="translate(17.69262 163.98731) rotate(-41.83433)"/><g class="h"><rect x="132.93915" y="31.8395" width="95.89057" height="91.58504"/></g><path d="M136.14712,5.95325A43.63408,43.63408,0,0,0,118.97826,22.378a45.26621,45.26621,0,0,0-6.21908,23.49426,45.26606,45.26606,0,0,0,6.21908,23.49424,43.63417,43.63417,0,0,0,17.16886,16.42472,50.83337,50.83337,0,0,0,24.55735,5.90013,52.91035,52.91035,0,0,0,17.85987-2.97664l-10.9498-12.22551a36.25481,36.25481,0,0,1-6.91007.691,32.39318,32.39318,0,0,1-16.05264-3.98658A28.79819,28.79819,0,0,1,133.43626,61.978a32.10693,32.10693,0,0,1-4.09289-16.10578,32.10665,32.10665,0,0,1,4.09289-16.10578,29.15406,29.15406,0,0,1,11.21557-11.21558,34.31263,34.31263,0,0,1,32.10528,0,28.79813,28.79813,0,0,1,11.21556,11.21558,32.10691,32.10691,0,0,1,4.0929,16.10578,32.21768,32.21768,0,0,1-2.44509,12.70392L201.155,71.43952c.47841-.691.90364-1.32886,1.32886-2.073a45.05064,45.05064,0,0,0,6.21908-23.5474,45.18552,45.18552,0,0,0-6.21908-23.5474A44.24871,44.24871,0,0,0,185.315,5.90014a53.95068,53.95068,0,0,0-49.16787.05311" transform="translate(20.18 21.7402)"/><path d="M136.14712,5.95325A43.63408,43.63408,0,0,0,118.97826,22.378a45.26621,45.26621,0,0,0-6.21908,23.49426,45.26606,45.26606,0,0,0,6.21908,23.49424,43.63417,43.63417,0,0,0,17.16886,16.42472,50.83337,50.83337,0,0,0,24.55735,5.90013,52.91035,52.91035,0,0,0,17.85987-2.97664l-10.9498-12.22551a36.25481,36.25481,0,0,1-6.91007.691,32.39318,32.39318,0,0,1-16.05264-3.98658A28.79819,28.79819,0,0,1,133.43626,61.978a32.10693,32.10693,0,0,1-4.09289-16.10578,32.10665,32.10665,0,0,1,4.09289-16.10578,29.15406,29.15406,0,0,1,11.21557-11.21558,34.31263,34.31263,0,0,1,32.10528,0,28.79813,28.79813,0,0,1,11.21556,11.21558,32.10691,32.10691,0,0,1,4.0929,16.10578,32.21768,32.21768,0,0,1-2.44509,12.70392L201.155,71.43952c.47841-.691.90364-1.32886,1.32886-2.073a45.05064,45.05064,0,0,0,6.21908-23.5474,45.18552,45.18552,0,0,0-6.21908-23.5474A44.24871,44.24871,0,0,0,185.315,5.90014a53.95068,53.95068,0,0,0-49.16787.05311" transform="translate(20.18 21.7402)"/><g class="i"><rect x="132.93918" y="21.79331" width="95.89057" height="91.58506"/></g><rect x="98.60145" y="21.79331" width="16.58418" height="89.29939"/><path d="M236.13056,80.21c-6.91008-6.91007-10.312-16.85-10.312-29.76647V.05313h16.58418V49.80564c0,17.541,7.54793,26.25829,22.69694,26.25829q22.56408,0,22.59062-26.25829V.05311h16.31838V50.4435q0,19.37476-10.25882,29.76647C286.893,87.12,277.32516,90.62822,264.99336,90.62822q-18.57741,0-28.8628-10.41825" transform="translate(20.18 21.7402)"/><rect x="347.36408" y="21.79331" width="16.58415" height="89.29939"/><g class="j"><rect width="494.33603" height="169.98781"/></g><path d="M384.4845,14.08587h21.687a37.92947,37.92947,0,0,1,17.27518,3.774A26.42256,26.42256,0,0,1,434.92805,28.597,31.83361,31.83361,0,0,1,438.96777,44.756a31.579,31.579,0,0,1-4.03972,16.159,27.05018,27.05018,0,0,1-11.48134,10.7372,38.08734,38.08734,0,0,1-17.27518,3.77395h-21.687ZM367.90035.05311V89.3525H406.9157a56.68367,56.68367,0,0,0,25.40784-5.52807,40.72539,40.72539,0,0,0,17.222-15.68055,44.24294,44.24294,0,0,0,6.11275-23.38794A44.24287,44.24287,0,0,0,449.54558,21.368a41.03652,41.03652,0,0,0-17.222-15.68055C424.93506,1.96664,416.4835.15939,406.9157.15939H367.90035Z" transform="translate(20.18 21.7402)"/><g class="k"><rect width="494.33603" height="169.98781"/></g><polygon points="22.219 21.793 22.219 111.093 85.472 111.093 85.472 97.06 38.803 97.06 38.803 21.793 22.219 21.793"/><g class="l"><rect width="494.33603" height="169.98781"/></g></svg>