<svg xmlns="http://www.w3.org/2000/svg" viewBox="0 0 521.296 111.33211"><path d="M0,0H52.95622V52.95622H0Z"/><path d="M58.36317,0h52.95622V52.95622H58.36953V0Z"/><path d="M477.54428,20.17744c4.88215-3.18056,11.18919-3.47317,16.69154-1.95922.04772,3.26961,0,6.54239.02227,9.81519-2.61441-1.15137-5.69-1.90834-8.44118-.77288a6.68079,6.68079,0,0,0-3.81667,5.34333,72.24455,72.24455,0,0,0-.21309,8.5875h16.75516c.04135-3.62583-.04454-7.25485.04771-10.88068,3.79758-1.08139,7.55382-2.29318,11.33232-3.43182.0318,4.77084-.04453,9.55757.04135,14.33794,3.77531-.05407,7.55381,0,11.33231-.02544V50.4913c-3.79121-.15585-7.58561-.04135-11.37685-.05407V66.47994c.06044,2.9611-.159,5.93809.18767,8.88965.2099,1.73976.84285,3.66718,2.47448,4.56727,2.7321,1.52985,6.19889.86194,8.70835-.8174v9.39217a22.22529,22.22529,0,0,1-10.47037,1.59028c-3.35867-.24808-6.83819-1.46941-9.0296-4.13472-2.54444-3.01835-3.18056-7.10535-3.23462-10.92838-.02863-8.20583,0-16.41166,0-24.62067H481.79354V89.05233h-11.45V50.43086c-2.65575-.05089-5.31471,0-7.97046-.04135,0-3.05651.02226-6.1162,0-9.17589,2.643-.06043,5.28926-.035,7.95138,0,.194-4.06475-.4262-8.24718.78877-12.207A15.61964,15.61964,0,0,1,477.54428,20.17744Z"/><path d="M144.55618,22.26388h16.65656q7.77645,19.74489,15.58471,39.48022c1.32629,3.29187,2.56671,6.62191,3.95661,9.88834,6.67917-16.44983,13.43466-32.85831,20.0534-49.3304,5.34015-.08587,10.68348-.01908,16.02681-.0318q-.01908,33.3958,0,66.79163c-3.85483,0-7.70648.03181-11.55813-.02227.04134-16.42756,0-32.85512.01908-49.29858,0-.73789-.01908-1.47578-.07-2.22639a8.82906,8.82906,0,0,0-.60113,1.06866c-6.61873,16.81559-13.35832,33.58347-19.94525,50.415-2.74164.0986-5.48646,0-8.23127.05089C169.619,72.23356,162.87617,55.3798,156.09205,38.55149c-.17811-.34986-.369-.69018-.57568-1.01778-.13995,7.19759-.02227,14.40155-.06043,21.59914V89.03006H144.553V22.23843Z"/><path d="M263.84922,41.14047a31.35384,31.35384,0,0,1,17.01278.05089,13.72766,13.72766,0,0,1,3.26643,1.36127c-.06361,3.6481,0,7.31528-.035,10.95065-3.69262-2.82115-8.37757-4.60862-13.07207-4.017a13.45055,13.45055,0,0,0-9.513,5.2829c-2.8625,3.734-3.52724,8.69246-3.03425,13.25973a13.4985,13.4985,0,0,0,15.343,12.69677,21.381,21.381,0,0,0,10.27637-4.22059c.03181,3.45726-.0159,6.91452.02545,10.37179-4.68178,2.78616-10.29545,3.4986-15.65469,3.241a23.21351,23.21351,0,0,1-14.92-6.22116A23.85676,23.85676,0,0,1,246.61379,67.873c-.27988-6.17346.97643-12.61408,4.52911-17.76976a23.04079,23.04079,0,0,1,12.70631-8.97552Z"/><path d="M388.9563,40.41212a30.2963,30.2963,0,0,1,15.85189,1.65071V52.59046a20.18379,20.18379,0,0,0-12.00977-3.55268c-2.14051.0827-4.49413.98916-5.47056,3.02471a4.94779,4.94779,0,0,0,1.66024,5.85858c3.24735,2.17232,7.12127,3.09468,10.49583,5.04118,2.64941,1.4885,5.21928,3.435,6.56148,6.24024,2.52218,5.25428,1.45352,12.19743-2.98017,16.11587-4.23332,3.95661-10.33044,5.05072-15.93776,4.8408a34.05338,34.05338,0,0,1-11.644-2.67166c0-3.69262-.02226-7.38206.01908-11.07151a25.04689,25.04689,0,0,0,10.39087,4.48459,13.37392,13.37392,0,0,0,7.90367-.72517c2.33453-1.1609,2.75435-4.47822,1.36763-6.50741a13.76928,13.76928,0,0,0-4.99982-3.27279c-3.40954-1.52349-6.94632-2.79571-9.9106-5.06027a11.85074,11.85074,0,0,1-4.27785-6.49787c-.916-3.81666-.63611-8.09769,1.59028-11.42454a17.07348,17.07348,0,0,1,11.39593-6.99722Z"/><path d="M309.73825,41.91971a12.882,12.882,0,0,1,10.62942-.89692v11.45a12.172,12.172,0,0,0-7.74147-1.81927c-3.25053.36894-5.82678,2.86249-7.1626,5.725a21.16607,21.16607,0,0,0-1.63163,9.77384v22.9H292.541V41.20726c3.769-.04771,7.53792-.02862,11.30687,0-.0159,2.73846,0,5.47692,0,8.21855,1.22452-2.98018,3.047-5.87448,5.919-7.49974Z"/><path d="M227.56228,41.2009c3.79758,0,7.59834-.05407,11.39592.01908-.04453,15.94412,0,31.89141-.01908,47.83553H227.56864V41.20089Z"/><path d="M367.84379,52.36142a20.25414,20.25414,0,0,0-10.00287-10.111c-5.10158-2.32174-10.89972-2.63343-16.39573-1.9338v.00963A22.86781,22.86781,0,0,0,326.38846,48.373a25.57726,25.57726,0,0,0-5.28608,14.63055c-.46118,6.1735.56931,12.72548,4.19515,17.87788a21.68712,21.68712,0,0,0,13.2311,8.629,32.89706,32.89706,0,0,0,13.40922,0,22.13846,22.13846,0,0,0,13.14838-8.11367,25.31286,25.31286,0,0,0,5.03485-13.93713A31.40314,31.40314,0,0,0,367.84379,52.36142Zm-11.062,21.97129a10.46368,10.46368,0,0,1-5.6264,5.52777,15.44062,15.44062,0,0,1-9.33492.4103,11.43069,11.43069,0,0,1-7.17851-5.92223c-1.84472-3.683-2.12144-7.95138-1.73977-11.98112.34669-3.67348,1.62526-7.45194,4.42416-9.98691a11.90628,11.90628,0,0,1,7.53473-2.97385,12.32652,12.32652,0,0,1,9.57983,3.2506c2.64624,2.60174,3.67037,6.3611,3.95341,9.97743C358.59794,66.5753,358.43572,70.68144,356.78181,74.33271Z"/><path d="M459.56779,53.74188A20.43432,20.43432,0,0,0,449.73036,42.61c-5.21616-2.62722-11.27509-3.01842-17.00009-2.30917v-.0031a23.71075,23.71075,0,0,0-12.65539,5.42915,23.28023,23.28023,0,0,0-7.55382,14.70058c-.70611,5.56271-.46757,11.42127,1.80017,16.62787A21.22334,21.22334,0,0,0,425.95572,88.343a30.86128,30.86128,0,0,0,16.13176,1.36447,22.33887,22.33887,0,0,0,14.08032-8.23124,26.24786,26.24786,0,0,0,5.18109-16.30344A30.51023,30.51023,0,0,0,459.56779,53.74188Zm-10.34,16.243a14.92142,14.92142,0,0,1-2.96112,7.02579,10.72557,10.72557,0,0,1-6.67916,3.60049,15.13766,15.13766,0,0,1-8.19311-.89065,11.62334,11.62334,0,0,1-6.04306-6.31964,22.73075,22.73075,0,0,1-1.3581-10.429,16.601,16.601,0,0,1,3.47-9.54166,11.77889,11.77889,0,0,1,8.3585-4.01079l0-.00311a12.57317,12.57317,0,0,1,9.17585,2.70658,13.07989,13.07989,0,0,1,4.13472,7.63333A29.08354,29.08354,0,0,1,449.22781,69.98492Z"/><path d="M0,58.37589H52.95622v52.953H0Z"/><path d="M58.36635,58.37589h52.953v52.95622H58.36317v-52.953Z"/></svg>