<svg xmlns="http://www.w3.org/2000/svg" viewBox="0 0 423.67999 254.11984"><defs><style>.a{fill-rule:evenodd;}</style></defs><polygon class="a" points="49.053 65.621 0 70.083 3.818 96.201 198.777 147.81 49.053 65.621"/><polygon class="a" points="106.394 36.311 65.621 32.493 57.341 59.889 205.152 146.54 106.394 36.311"/><polygon class="a" points="169.475 22.3 137.617 10.193 118.501 33.763 208.335 145.897 169.475 22.3"/><polygon class="a" points="211.518 0 180.939 22.3 212.162 145.897 243.376 21.022 211.518 0"/><polygon class="a" points="286.698 8.915 254.848 23.57 214.71 145.262 307.728 33.763 286.698 8.915"/><polygon class="a" points="358.694 32.493 317.286 37.59 218.528 146.54 368.887 60.524 358.694 32.493"/><polygon class="a" points="375.897 66.256 223.625 147.81 421.132 98.114 423.68 70.083 375.897 66.256"/><polygon class="a" points="36.54 233.793 36.54 253.849 39.198 253.849 39.198 243.503 39.258 243.503 43.008 253.849 46.064 253.849 41.806 243.503 45.743 233.793 43.008 233.793 39.308 243.503 39.224 243.503 39.198 233.793 36.54 233.793"/><path class="a" d="M71.68288,233.7926l-4.36007,20.05631h2.60758l.745-3.91135H74.663l.745,3.91135h2.68377L73.78248,233.7926Zm2.57371,14.07074H71.06486l1.59163-10.18478h.0508l1.00747,7.28935Z"/><polygon class="a" points="100.857 233.793 100.857 253.849 107.986 253.849 107.986 251.538 103.516 251.538 103.516 233.793 100.857 233.793"/><polygon class="a" points="130.675 233.793 130.675 253.849 137.829 253.849 137.829 251.538 133.333 251.538 133.333 244.722 137.355 244.722 137.355 242.411 133.333 242.411 133.333 236.104 137.829 236.104 137.829 233.793 130.675 233.793"/><rect x="160.91611" y="233.7926" width="2.65837" height="20.05631"/><path class="a" d="M187.83,233.7926v20.05631h1.83715c4.758,0,7.84813-.4233,7.84813-9.68527,0-10.15938-3.56426-10.371-6.70519-10.371Zm6.86605,10.371c0,3.40338.18626,7.55181-4.19922,7.4248V236.05305C194.98388,235.7906,194.696,241.082,194.696,244.16364Z"/><path class="a" d="M225.95307,233.53016c-5.16435,0-5.21515,6.6798-5.21515,10.29484s.0508,10.29484,5.21515,10.29484c5.15589,0,5.21516-6.67981,5.21516-10.29484C231.15975,240.20149,231.109,233.53016,225.95307,233.53016Zm0,2.49752c2.09962,0,2.39591,3.53884,2.39591,7.79732s-.29632,7.79731-2.39591,7.79731-2.3959-3.53884-2.3959-7.79731S223.845,236.02768,225.95307,236.02768Z"/><path class="a" d="M261.10452,234.19051a5.36552,5.36552,0,0,0-2.81922-.66883c-3.00547,0-4.49552,2.31127-4.49552,5.13049,0,5.26594,5.61306,6.06176,5.61306,10.05779,0,1.49-.69423,2.79381-2.34511,2.79381a4.30625,4.30625,0,0,1-2.633-1.04134v2.68378a4.62745,4.62745,0,0,0,2.92928.95668c2.95467,0,4.70717-2.42131,4.70717-5.24055,0-2.70918-1.04134-4.04682-2.84461-5.87551l-2.02342-2.20965a3.24851,3.24851,0,0,1-.745-2.18426,2.41267,2.41267,0,0,1,2.37051-2.58216,3.68476,3.68476,0,0,1,2.26048.84661Z"/><path class="a" d="M293.0981,234.11432a4.15134,4.15134,0,0,0-2.31126-.58416c-5.45221,0-5.96018,6.59513-5.96018,10.61655,0,4.19921.71963,9.97313,6.14643,9.97313a3.76135,3.76135,0,0,0,2.125-.55877V251.2244a3.3365,3.3365,0,0,1-1.59164.39791c-3.64043,0-3.86056-5.00349-3.86056-7.66185,0-2.49753.0254-7.92431,3.7505-7.92431a3.78871,3.78871,0,0,1,1.7017.508Z"/><path class="a" d="M320.87554,233.53016c-5.16436,0-5.21515,6.6798-5.21515,10.29484s.05079,10.29484,5.21515,10.29484c5.15588,0,5.21515-6.67981,5.21515-10.29484C326.08222,240.20149,326.03142,233.53016,320.87554,233.53016Zm0,2.49752c2.09961,0,2.39591,3.53884,2.39591,7.79732s-.29632,7.79731-2.39591,7.79731-2.39591-3.53884-2.39591-7.79731S318.76745,236.02768,320.87554,236.02768Z"/><path class="a" d="M352.49661,253.84891v-8.881c4.14841.16086,5.74853-1.7271,5.74853-5.79932,0-5.15588-2.92928-5.376-5.21515-5.376h-3.19173v20.05631Zm.364-17.79583c2.02342,0,2.55677,1.51545,2.55677,3.32719,0,2.23507-.635,3.48805-2.92928,3.32719v-6.64593h.37251Z"/><polygon class="a" points="381.163 233.793 381.163 253.849 388.317 253.849 388.317 251.538 383.821 251.538 383.821 244.722 387.843 244.722 387.843 242.411 383.821 242.411 383.821 236.104 388.317 236.104 388.317 233.793 381.163 233.793"/><path class="a" d="M16.15341,165.97874l13.004-8.6778H37.759v8.21216l10.16785-8.21216,9.61755.01693v50.06035H47.4443L47.15645,163.168l-9.389,7.43327s-.94821,27.19327-.27092,36.6161l-10.26944.16086V163.5659L16.636,170.78752l.39791,36.57376-10.50649.01694V157.31787h9.626Z"/><path class="a" d="M232.77679,166.46132h-3.36954v-4.81724l-11.133-.04234.22858,42.40694c3.85208,1.08367,8.01744.60111,9.93925-3.36952v-4.33467h3.85209c1.08366,4.81725-1.93028,8.66087-5.77392,10.59115l-18.29535.48258.364-44.70127c4.93577-7.94125,16.42434-4.30081,24.18779-4.885v8.66934Z"/><polygon class="a" points="82.587 202.561 82.587 202.561 94.135 194.857 94.135 166.461 103.287 166.461 103.287 207.378 94.135 207.378 94.135 199.191 81.571 207.361 73.435 207.378 73.435 166.461 82.587 166.461 82.587 202.561"/><polygon class="a" points="129.761 204.483 140.834 204.517 140.834 207.378 120.135 207.378 120.135 166.461 129.761 166.461 129.761 204.483"/><polygon class="a" points="172.608 169.348 162.017 169.348 161.983 207.378 152.391 207.378 152.391 169.424 140.834 169.348 140.834 166.461 172.608 166.461 172.608 169.348"/><rect x="182.23387" y="166.46132" width="9.62601" height="40.9169"/><polygon class="a" points="253.477 184.266 264.55 176.57 264.55 166.461 274.185 166.461 274.185 207.378 264.55 207.378 264.55 181.379 253.477 189.083 253.477 207.378 243.851 207.378 243.851 166.461 253.477 166.461 253.477 184.266"/><rect x="337.2406" y="166.46132" width="9.62601" height="40.9169"/><path class="a" d="M384.42246,174.157h-3.36954v-4.33466c-2.28587-.84662-5.17281-.364-7.7042-.48258l-.48258,34.66042c1.68476.84662,3.85209.364,5.77392.48258,2.64991-1.44772,2.52292-4.08915,2.40439-6.73906h2.887c.60108,3.8521-.364,7.94125-4.33467,9.14344H363.23168c.364-12.513-.84661-25.6355.96516-37.54738,4.57171-5.29134,14.24007-3.44573,20.21717-2.887v7.7042Z"/><polygon class="a" points="417.153 168.866 406.561 168.866 406.079 182.344 414.748 182.31 414.748 185.231 406.561 185.231 406.079 204.483 417.153 204.627 417.153 207.378 396.453 207.378 396.453 166.461 417.153 166.461 417.153 168.866"/><path class="a" d="M317.015,166.93527c-8.54237.3642-20.45424-3.48815-26.47366,3.36951v33.69553c.60111,1.92183,2.6499,2.52289,4.33466,2.88709,8.18675-.3642,19.86161,3.48774,25.517-3.36993V170.30478A7.60636,7.60636,0,0,0,317.015,166.93527Zm-6.248,37.55614H300.65837V169.83063H310.767Z"/></svg>