<svg xmlns="http://www.w3.org/2000/svg" viewBox="0 0 207.32078 72.57739"><path d="M22.715,72.57739A25.60945,25.60945,0,0,1,7.5256,67.39329a35.87547,35.87547,0,0,1-3.1623-3.11046,19.49238,19.49238,0,0,1-3.42151-6.0654,34.37057,34.37057,0,0,1,3.266-24.46894A110.93961,110.93961,0,0,1,23.85551,6.42828C25.3589,4.82121,29.76539,0,29.81723,0a4.66633,4.66633,0,0,1-.51841.93314,56.55843,56.55843,0,0,0-6.11724,13.7897,24.62447,24.62447,0,0,0,.67393,17.8333,17.67777,17.67777,0,0,0,7.77615,7.56879,37.68843,37.68843,0,0,0,24.00238.67393L132.0995,20.7364,207.32078,1.24418,61.33655,62.57207c-7.93167,3.31783-10.00531,4.14728-13.73786,5.1841A70.29631,70.29631,0,0,1,22.715,72.57739Z"/></svg>