<svg xmlns="http://www.w3.org/2000/svg" viewBox="0 0 149.9 28.8"><title>pnp-black</title><g data-name="Layer 2"><g data-name="Layer 1"><path data-name="06196348-e6ed-409b-87b0-b31b517fc2e0" d="M63.6 22.8h-3.5a1.52 1.52 0 0 1-1.2-.7l-4-5.4v5.1a1 1 0 0 1-1 1h-2.7a1 1 0 0 1-1-.9V2.4a.9.9 0 0 1 .9-.9H54a.92.92 0 0 1 1 .9v10.4l4.4-5.4a1.23 1.23 0 0 1 1-.5h3.1c.7 0 1.1.4.6 1.2l-5.5 6.5 5.6 7.4c.4.4 0 .8-.6.8zM43.4 10.4c1.2 0 2.4.1 3.5.2.7.1.9-.2.9-.8V8a1.07 1.07 0 0 0-.9-1.1 15 15 0 0 0-3.7-.4c-6.3 0-6.6 5.8-6.8 6.8a12.19 12.19 0 0 0 0 2.7c.1 1.1.5 6.8 6.8 6.8a15.53 15.53 0 0 0 3.7-.4 1.09 1.09 0 0 0 .9-1.1v-1.8c0-.6-.3-.9-1-.8-1.1.1-2.3.2-3.5.2-1.4-.1-2.2-.9-2.3-3.2a10.45 10.45 0 0 1 0-2.5c.3-1.9 1-2.8 2.4-2.8zm-9.3-2.6a.92.92 0 0 0-.9-1h-2.8a.9.9 0 0 0-.9.9v14.2a.9.9 0 0 0 .9.9h2.7a.9.9 0 0 0 .9-.9zm-7.5-5.4v21.9a2.5 2.5 0 0 1-2.4 2.4H2.4A2.5 2.5 0 0 1 0 24.3V2.4A2.5 2.5 0 0 1 2.4 0h21.9a2.35 2.35 0 0 1 2.3 2.4zm-4.1 8.2c0-3.5-1.1-5.5-3-6.3a12.42 12.42 0 0 0-3.3-.4H6.3a.9.9 0 0 0-.9.9v17a.9.9 0 0 0 .9.9H9a.9.9 0 0 0 .9-.9v-4.5h6.3a7.51 7.51 0 0 0 3.3-.4c1.9-.8 3-2.8 3-6.3zm-4.7 0c0 2.3-.7 2.9-2.2 2.9H9.9V7.7h5.7c1.5 0 2.2.6 2.2 2.9zm108.4-4.1a19.73 19.73 0 0 0-4.8.6 1 1 0 0 0-.9.9v1.6c0 .6.4.9 1.1.9 1.4-.2 2.7-.3 4.1-.4 2.1 0 2.4.6 2.4 1.7v.6a25.72 25.72 0 0 0-4.8.2c-2.6.5-4.2 2-4.2 5.1s2.1 5.1 6.8 5.1a30.39 30.39 0 0 0 6-.5 1.16 1.16 0 0 0 .8-1.2V12c.1-2.9-.4-5.5-6.5-5.5zm2.1 12.9l-2.2.1c-1.8 0-2.4-.6-2.4-2s.9-1.7 1.9-1.9a12.19 12.19 0 0 1 2.7 0zM105.6 7.7H100v5.8h5.7c1.4 0 2.2-.6 2.2-2.9s-.8-2.9-2.3-2.9zm8.7-7.7H92.4A2.5 2.5 0 0 0 90 2.4v21.9a2.5 2.5 0 0 0 2.4 2.4h21.8a2.5 2.5 0 0 0 2.4-2.4V2.4a2.41 2.41 0 0 0-2.3-2.4zm-4.8 16.9a12.42 12.42 0 0 1-3.3.4h-6.3v4.5a.9.9 0 0 1-.9.9h-2.7a.9.9 0 0 1-.9-.9v-17a.9.9 0 0 1 .9-.9h9.9a7.51 7.51 0 0 1 3.3.4c1.9.8 3 2.8 3 6.3s-1.1 5.5-3 6.3zm40.4 4.6c0 5-2.1 7.3-7.3 7.3a20.74 20.74 0 0 1-5-.6 1.06 1.06 0 0 1-.9-1v-1.6a.64.64 0 0 1 .6-.8h.3a24.18 24.18 0 0 0 4.7.4c2.6 0 3-.6 3-2.7a15.26 15.26 0 0 1-3 .3c-4.7 0-6.6-1.5-6.6-5.8V7.6a.9.9 0 0 1 .9-.9h2.7a.9.9 0 0 1 .9.9V17c0 1.5.8 2.1 2.7 2.1a7.8 7.8 0 0 0 2.2-.4V7.5a.9.9 0 0 1 .9-.9h2.9a.9.9 0 0 1 .9.9zm-66.1-9.2v9.5a.9.9 0 0 1-.9.9h-2.7a.9.9 0 0 1-.9-.9v-9.4c0-1.2-.1-1.9-2.4-1.9a12.41 12.41 0 0 0-2.7.3v11.1a.9.9 0 0 1-.9.9h-2.9a.9.9 0 0 1-.9-.9V8.4a.83.83 0 0 1 .6-1 22.84 22.84 0 0 1 6.3-.9c5.5 0 7.4 2.1 7.4 5.8z"/></g></g></svg>