<svg xmlns="http://www.w3.org/2000/svg" viewBox="0 0 175.66 37.34"><title>sanlam-black</title><g data-name="Layer 2"><g data-name="Layer 1"><g data-name="Layer 2"><path d="M140.76 31.87a22.43 22.43 0 0 1-.17-2.79v-10.8a6.2 6.2 0 0 0-.09-1.09 6.28 6.28 0 0 0-3.58-4.52 10.35 10.35 0 0 0-2.49-.64 24 24 0 0 0-3.29-.22 18.21 18.21 0 0 0-3.57.35 10.18 10.18 0 0 0-3.19 1.19 7.23 7.23 0 0 0-.76.51 7.13 7.13 0 0 0-2.42 5.24v.1h5.91a6.89 6.89 0 0 1 .35-1.74 2.87 2.87 0 0 1 1.87-1.73 6.19 6.19 0 0 1 1.8-.24 5.47 5.47 0 0 1 2.16.38 2.46 2.46 0 0 1-.13 4.57l-.47.14a15.73 15.73 0 0 1-2.29.38q-1.31.13-2.62.34a24.76 24.76 0 0 0-2.62.56c-.28.08-.76.26-.76.26a6.21 6.21 0 0 0-3.84 4.8v.92a8.3 8.3 0 0 0 .1 1.31 6.33 6.33 0 0 0 4.4 4.92 11.11 11.11 0 0 0 2.62.31 14.56 14.56 0 0 0 3.93-.58 7.71 7.71 0 0 0 3.34-2 8.52 8.52 0 0 0 .14 1.06 8.18 8.18 0 0 0 .28 1h6a5 5 0 0 1-.58-2m-6.07-6.32a11.29 11.29 0 0 1-.1 1.31 4.51 4.51 0 0 1-.56 1.65 3.93 3.93 0 0 1-1.42 1.39 5.24 5.24 0 0 1-2.7.59 8.38 8.38 0 0 1-1.31-.12l-.39-.1a2.82 2.82 0 0 1-1.49-1.26 2.77 2.77 0 0 1-.34-1 1.86 1.86 0 0 1 0-.21v-.54c0-.08.08-.41.08-.42a2.79 2.79 0 0 1 1.77-1.9h.17a28.31 28.31 0 0 1 2.88-.58c.47-.07.92-.13 1.31-.21a9.7 9.7 0 0 0 1.21-.31 2.62 2.62 0 0 0 .94-.52zm-46.65 6.33a22.41 22.41 0 0 1-.17-2.79v-10.8a6.2 6.2 0 0 0-.09-1.09 6.28 6.28 0 0 0-3.58-4.52 10.34 10.34 0 0 0-2.49-.67 24 24 0 0 0-3.29-.22 18.19 18.19 0 0 0-3.57.35 10.21 10.21 0 0 0-3.19 1.19 7.35 7.35 0 0 0-.76.51h-.07a7.13 7.13 0 0 0-2.42 5.24v.1h5.91a6.84 6.84 0 0 1 .35-1.74 2.87 2.87 0 0 1 1.87-1.73 6.19 6.19 0 0 1 1.8-.24 5.45 5.45 0 0 1 2.15.38 2.46 2.46 0 0 1-.13 4.57l-.47.14a15.73 15.73 0 0 1-2.29.38q-1.31.13-2.62.34a24.9 24.9 0 0 0-2.62.56c-.28.08-.76.26-.76.26a6.2 6.2 0 0 0-3.84 4.8v.92a8.31 8.31 0 0 0 .09 1.31 6.33 6.33 0 0 0 4.5 4.92 11.11 11.11 0 0 0 2.62.36 14.56 14.56 0 0 0 3.93-.58 7.71 7.71 0 0 0 3.33-2 8.77 8.77 0 0 0 .14 1.06 8.41 8.41 0 0 0 .28 1h6a5 5 0 0 1-.58-2M82 25.56a11.29 11.29 0 0 1-.1 1.31 4.46 4.46 0 0 1-.56 1.65 3.93 3.93 0 0 1-1.44 1.4 5.24 5.24 0 0 1-2.71.59 8.36 8.36 0 0 1-1.31-.12 3 3 0 0 1-.41-.1A2.8 2.8 0 0 1 74 29.06a2.74 2.74 0 0 1-.34-1 1.87 1.87 0 0 1 0-.21v-.54c0-.08.08-.41.08-.42A2.79 2.79 0 0 1 75.5 25h.17a28.3 28.3 0 0 1 2.88-.58c.47-.07.93-.13 1.31-.21a9.7 9.7 0 0 0 1.21-.31 2.62 2.62 0 0 0 .93-.52zm93.16-9.65a6.15 6.15 0 0 0-1.63-2.4 6.42 6.42 0 0 0-2.5-1.31 11.53 11.53 0 0 0-3.2-.39 6.92 6.92 0 0 0-3.93 1.09 9.18 9.18 0 0 0-2.62 2.5 5.24 5.24 0 0 0-2.62-2.79 8.65 8.65 0 0 0-3.72-.79 7.62 7.62 0 0 0-3.77.92 8.3 8.3 0 0 0-2.6 2.26v-2.64h-5.74v21.51h5.91v-12.5a6.09 6.09 0 0 1 .46-2.62 4.14 4.14 0 0 1 1.1-1.49 3.66 3.66 0 0 1 1.31-.71l.41-.1a3.93 3.93 0 0 1 .58 0 3.68 3.68 0 0 1 3.68 3.22v14.18h5.91v-12a13.43 13.43 0 0 1 .14-2 5.24 5.24 0 0 1 .31-1.18 3.68 3.68 0 0 1 7 .75v.21q.08 1 .08 2v12.2h5.91V19.5a9.73 9.73 0 0 0-.59-3.57m-65 1.11a7 7 0 0 0-1.23-2.79 5.77 5.77 0 0 0-2.4-1.8 10 10 0 0 0-3.93-.64 8.17 8.17 0 0 0-2.53.41 7.86 7.86 0 0 0-3.6 2.52l-.28.39v-2.8h-5.84v21.55h5.91V22.59a8 8 0 0 1 1.09-4.73 3.26 3.26 0 0 1 .28-.31 4 4 0 0 1 1.8-1.19 3.93 3.93 0 0 1 4.89 2.52 10.22 10.22 0 0 1 .34 2.84v12.16h5.91V20.63a17.37 17.37 0 0 0-.38-3.58m-44.38 5.81a6.67 6.67 0 0 0-1.93-2.18 10 10 0 0 0-2.71-1.31A31.17 31.17 0 0 0 58 18.5l-3.15-.66A18.89 18.89 0 0 1 52.1 17l-.37-.14-.3-.13-.56-.3a2.53 2.53 0 0 1 .45-4.43 6.79 6.79 0 0 1 1.44-.33 12.33 12.33 0 0 1 1.44-.1 7.86 7.86 0 0 1 3.41.71 3.59 3.59 0 0 1 1.9 2.78h6a8.66 8.66 0 0 0-1.23-3.71 8.18 8.18 0 0 0-2.48-2.5 10.49 10.49 0 0 0-3.33-1.39A17 17 0 0 0 54.53 7a20.75 20.75 0 0 0-3.71.35 11.42 11.42 0 0 0-3.54 1.25 7.86 7.86 0 0 0-2.62 2.32 6 6 0 0 0-1 3.57 7 7 0 0 0 .71 3.3A6.29 6.29 0 0 0 46.22 20a10 10 0 0 0 2.62 1.31 29 29 0 0 0 3.11.87q1.57.35 3.08.66a18.69 18.69 0 0 1 2.7.73 5.66 5.66 0 0 1 1.89 1.09 2.74 2.74 0 0 1 .06 3.87l-.06.06a3.81 3.81 0 0 1-1.17.71 8 8 0 0 1-1.94.48 15.52 15.52 0 0 1-1.85.13 7.55 7.55 0 0 1-3.93-1 4.34 4.34 0 0 1-1.91-3.54h-5.68a9 9 0 0 0 .93 4 8.18 8.18 0 0 0 2.42 2.83 10.71 10.71 0 0 0 3.64 1.69 17.94 17.94 0 0 0 4.59.55 19.08 19.08 0 0 0 4.1-.37 12.6 12.6 0 0 0 3.77-1.47 8.43 8.43 0 0 0 2.76-2.6 7 7 0 0 0 1.06-3.93 6.55 6.55 0 0 0-.73-3.24m52.93 11h-5.92V4.14h5.91zM16.79 27.29a20.39 20.39 0 0 0-.14 3.24v6.82h6.82a2 2 0 0 0 .81-.26 2.22 2.22 0 0 0 1.1-1.91v-2.73a9.63 9.63 0 0 1 .62-3.74l4.93-8a2.2 2.2 0 0 0 .38-1.31 1.74 1.74 0 0 0-.29-1C22 6.16 17.75.32 17.64.17V.08a.17.17 0 0 0-.13-.08.14.14 0 0 0-.1 0l-.14.17-.09.14c-1.23 2.15 0 4 .92 5.62a25.3 25.3 0 0 0 1.3 2.26c.83 1.47 1.89 3.09 2.84 4.72a6.46 6.46 0 0 1 1.31 3.93A7.86 7.86 0 0 1 22 21.36a21 21 0 0 1-4.06 4.05 3.34 3.34 0 0 0-1.14 1.87m-3.42-1.87a21 21 0 0 1-4.06-4.05 7.86 7.86 0 0 1-1.56-4.52 6.46 6.46 0 0 1 1.31-3.93c1-1.63 2-3.25 2.9-4.68.42-.69.84-1.43 1.31-2.24.88-1.6 2.15-3.47.92-5.62L14 .18V0a.14.14 0 0 0-.1 0 .17.17 0 0 0-.13.07l-.07.09c-.12.16-4.36 6-13.38 18.13a1.74 1.74 0 0 0-.29 1H0a2.22 2.22 0 0 0 .38 1.31l4.82 8a9.66 9.66 0 0 1 .62 3.74v2.76a2.22 2.22 0 0 0 1.1 1.9 2 2 0 0 0 .81.26h6.82v-6.8a20.24 20.24 0 0 0-.14-3.24 3.34 3.34 0 0 0-1.14-1.87m2.42-14.85a6.17 6.17 0 1 0 6.17 6.17 6.17 6.17 0 0 0-6.17-6.17" data-name="Layer 1-2"/></g></g></g></svg>