<svg xmlns="http://www.w3.org/2000/svg" viewBox="0 0 180 67.08"><title>santam-black</title><g id="Layer_2" data-name="Layer 2"><g id="Layer_1-2" data-name="Layer 1"><path d="M21.53,62.72A8.43,8.43,0,0,0,23,57.78a7.29,7.29,0,0,0-1.17-4.24,11.42,11.42,0,0,0-3.38-3.1,59.91,59.91,0,0,0-6-3.18A15.24,15.24,0,0,1,9.22,45.4a2.91,2.91,0,0,1-1.11-2.28,3,3,0,0,1,1.11-2.35,4.78,4.78,0,0,1,3.2-.9,13.49,13.49,0,0,1,5.67,1.22,29.26,29.26,0,0,1,3.45,1.86V37c-.32-.17-.83-.43-1.65-.79a21.65,21.65,0,0,0-3.75-1.16,22.46,22.46,0,0,0-5-.52A14.56,14.56,0,0,0,4.9,35.8,8.41,8.41,0,0,0,1.21,39,8.43,8.43,0,0,0,0,43.4,8,8,0,0,0,1.18,47.8,10.62,10.62,0,0,0,4.32,51,29.19,29.19,0,0,0,9,53.39a19,19,0,0,1,3.9,2,3.44,3.44,0,0,1,1.61,2.88,3.21,3.21,0,0,1-.95,2.1c-.66.74-1.93,1.11-3.89,1.11a14,14,0,0,1-5.5-1.09A35.85,35.85,0,0,1,.29,58.43v6.27a29.81,29.81,0,0,0,4.57,1.53,27.83,27.83,0,0,0,3.86.71c1,.09,1.79.13,2.46.13a15.94,15.94,0,0,0,6.24-1.15,9.35,9.35,0,0,0,4.11-3.21m23.21-4.84-.36.26a18,18,0,0,1-3,1.88,5.87,5.87,0,0,1-2.33.54,4.69,4.69,0,0,1-3.69-1.67,7.27,7.27,0,0,1-1.68-3.77,12.26,12.26,0,0,1,.44-5.73,8.84,8.84,0,0,1,3-4.32,8,8,0,0,1,5-1.62h2.63Zm-.17,8h7.74V39c-1.82-.28-3.2-.47-4.21-.59a38.5,38.5,0,0,0-4.3-.2,27.05,27.05,0,0,0-10,1.59,12.87,12.87,0,0,0-5.66,4,12.23,12.23,0,0,0-2.3,5.24,17.59,17.59,0,0,0-.07,5.47,16.13,16.13,0,0,0,2.08,5.91,13,13,0,0,0,4,4.29A9.29,9.29,0,0,0,37,66.35a6.74,6.74,0,0,0,3.39-.72,13.46,13.46,0,0,0,2.67-2.14L44.58,62Zm31,0h7.75l0-16.53c0-1.48-.1-2.55-.18-3.08a11.57,11.57,0,0,0-2.51-5.6c-1.31-1.62-3.25-2.41-5.95-2.41a9,9,0,0,0-4.32.9,29.65,29.65,0,0,0-4,2.79L64.93,43l0-4.3H57.24v27.1h7.64V48.92l.23-.25a29.54,29.54,0,0,1,3.49-3.39,5.28,5.28,0,0,1,3.26-1.14c1.17,0,3.19.45,3.64,3.46a7,7,0,0,1,.1,1.14ZM98,66.35a12.89,12.89,0,0,0,6.8-1.86l-.84-6.66a7.89,7.89,0,0,1-4.45,1.67c-1.06,0-2.92-.4-3.43-3.11a11.59,11.59,0,0,1-.14-2V44.08h5.72V37.86H96v-9.6H88.29V55.52a16,16,0,0,0,.26,3,9,9,0,0,0,2.52,5,9.36,9.36,0,0,0,3.4,2.26,10.61,10.61,0,0,0,3.49.61m27.61-8.53-.44.34a19,19,0,0,1-2.9,1.87,5.91,5.91,0,0,1-2.33.54,4.7,4.7,0,0,1-3.69-1.67,7.27,7.27,0,0,1-1.69-3.77,12.23,12.23,0,0,1,.44-5.73,8.82,8.82,0,0,1,3-4.32,8,8,0,0,1,5-1.62h2.62Zm-.13,8h7.72V39c-1.83-.28-3.2-.48-4.21-.59a38.39,38.39,0,0,0-4.29-.2,27.07,27.07,0,0,0-10.05,1.59,12.87,12.87,0,0,0-5.66,4,12.19,12.19,0,0,0-2.3,5.24,17.63,17.63,0,0,0-.07,5.47,16.15,16.15,0,0,0,2.08,5.92,13,13,0,0,0,4,4.29,9.29,9.29,0,0,0,5.18,1.57,6.73,6.73,0,0,0,3.39-.72,13.34,13.34,0,0,0,2.68-2.14l1.5-1.52Zm54.57-16a32.43,32.43,0,0,0-.17-3.81,10.88,10.88,0,0,0-2.55-5.42c-1.34-1.61-3.57-2.42-6.61-2.42a8.76,8.76,0,0,0-3.34.6,10.43,10.43,0,0,0-2.58,1.48,14.06,14.06,0,0,0-1.92,1.84l-.76.9-.63-1a7.64,7.64,0,0,0-6.86-3.82,8.41,8.41,0,0,0-4.24,1.1,11.9,11.9,0,0,0-3.12,2.47l-1.52,1.78,0-4.85h-7.6V65.84h7.61l0-17.73.21-.24a22.28,22.28,0,0,1,3-2.92,4.78,4.78,0,0,1,2.93-1.09,2.91,2.91,0,0,1,2.32.93,4.51,4.51,0,0,1,.91,2.28,32.43,32.43,0,0,1,.13,3.46V65.8h7.62l0-18.37.25-.25c2.2-2.23,4.07-3.32,5.72-3.32,1.06,0,2.92.48,3.39,3.71a16.43,16.43,0,0,1,.14,2.13V65.84H180Z"/><path d="M95.7,2V0h-8V1.91A144.33,144.33,0,0,0,2.2,31.56a54.65,54.65,0,0,1,7.29-3c19.36-6.08,38.22-4.69,50.07,2.84,8.28-4.16,18.72-6.62,30.79-6.66s22.5,2.49,30.78,6.66c11.85-7.53,30.72-8.92,50.07-2.84a54.56,54.56,0,0,1,7.29,3A144.26,144.26,0,0,0,95.7,2"/></g></g></svg>