<svg xmlns="http://www.w3.org/2000/svg" viewBox="0 0 217.6 65.2"><title>spotify-black</title><g id="Layer_2" data-name="Layer 2"><g id="Layer_1-2" data-name="Layer 1"><path d="M86.5,17.4c1,0,5.4-.3,10.7,3.7a.61.61,0,0,1,.1.8l-2.5,3.6a.52.52,0,0,1-.8.1,17.19,17.19,0,0,0-2.2-1.4,11.88,11.88,0,0,0-5.2-1.4c-1.7,0-4.5.6-4.5,3.3,0,2.2,1.9,3,7.9,4.5,3.9,1,8.4,2.9,8.4,8.8,0,5.5-4.5,8.9-10.8,8.9-3.8,0-9-1.4-12.3-4.7a.48.48,0,0,1,0-.7l2.9-3.4a.52.52,0,0,1,.8,0,13.29,13.29,0,0,0,8.6,3.6c5.2,0,5-3.1,5-3.6,0-1-.7-2.4-3.3-3.1S80.4,34.5,78,31.7a7.43,7.43,0,0,1-1.7-5.1C76.2,23.1,78.3,17.4,86.5,17.4Z"/><path d="M113.2,24.5a9.28,9.28,0,0,0-7.1,3.4V25.6a.58.58,0,0,0-.6-.6h-4.7a.58.58,0,0,0-.6.6V54a.58.58,0,0,0,.6.6h4.7a.58.58,0,0,0,.6-.6V45.2a9.23,9.23,0,0,0,7.3,3.1c4,0,10.4-3.2,10.4-11.7S117.8,24.5,113.2,24.5Zm-1.3,18.6c-3.2,0-5.9-2.8-5.9-6.8,0-2.4,1.5-6.7,5.9-6.7s6,3.5,6,6.7S116.1,43.1,111.9,43.1Z"/><path d="M137.4,24.5a11.93,11.93,0,0,0-12,11.9,11.76,11.76,0,0,0,12.1,11.8,11.85,11.85,0,1,0-.1-23.7Zm.1,18.6a6.52,6.52,0,0,1-6.3-6.8c0-4.3,3-6.7,6.3-6.7a6.47,6.47,0,0,1,6.3,6.7C143.8,40.9,140.5,43.1,137.5,43.1Z"/><path d="M164.5,29.5v-4a.58.58,0,0,0-.6-.6h-5.4V19.4a.58.58,0,0,0-.6-.6h-4.6a.58.58,0,0,0-.6.6v5.5h-2.3a.58.58,0,0,0-.6.6v4a.58.58,0,0,0,.6.6h2.3V41.5c0,2.6,1.2,6.6,6.3,6.6a12.15,12.15,0,0,0,5.1-1.2.55.55,0,0,0,.3-.5V42.5a.45.45,0,0,0-.7-.4,4.32,4.32,0,0,1-2.7.8c-2.4,0-2.6-1.7-2.6-2.8v-10h5.4A.67.67,0,0,0,164.5,29.5Z"/><circle cx="169.7" cy="18.6" r="3.6"/><path d="M171.2,47.7h-2.9a1.37,1.37,0,0,1-1.4-1.4V26.4a1.37,1.37,0,0,1,1.4-1.4h2.9a1.37,1.37,0,0,1,1.4,1.4V46.3A1.37,1.37,0,0,1,171.2,47.7Z"/><path d="M177.7,30.1h-2.2a.58.58,0,0,1-.6-.6v-4a.58.58,0,0,1,.6-.6h2.2V23.4c0-1,.2-7.1,7-7.1,3.4,0,4.5.8,4.5.8v4.1c0,.4-.1.8-.6.6a8.79,8.79,0,0,0-2.8-.5,2.34,2.34,0,0,0-2.5,2.5v1.1h8.4a.51.51,0,0,1,.5.4l5.9,15.3,5.3-15.2a.66.66,0,0,1,.5-.4h5.2a.35.35,0,0,1,.3.5c-1.2,3.1-8.1,21-9,23.2-1,2.5-2.6,5.9-7.4,5.9a9.67,9.67,0,0,1-5.3-1.4.62.62,0,0,1-.2-.7l1.7-3.6a.25.25,0,0,1,.4-.1,5.81,5.81,0,0,0,2.9.9c1.9,0,2.7-2.2,2.7-2.2L188,30.2h-4.8V47.3a.58.58,0,0,1-.6.6h-4.7a.58.58,0,0,1-.6-.6Z"/><path d="M212.5,26.5h1.7a1.25,1.25,0,0,1,1.1.4,1.22,1.22,0,0,1,.3.9h0a1.21,1.21,0,0,1-.8,1.2l.9,1.3h-1l-.8-1.2h-.6v1.2h-.8V26.5Zm1.7,1.9c.4,0,.6-.2.6-.5h0c0-.4-.2-.5-.7-.5h-.8v1.1h.9Z"/><path d="M214,32.1a3.6,3.6,0,1,1,3.6-3.6A3.65,3.65,0,0,1,214,32.1Zm0-6.8a3.2,3.2,0,1,0,0,6.4,3.16,3.16,0,0,0,3.2-3.2A3.22,3.22,0,0,0,214,25.3Z"/><path d="M32.6,0A32.6,32.6,0,1,0,65.2,32.6,32.61,32.61,0,0,0,32.6,0ZM47.5,47.1a2.14,2.14,0,0,1-2.9.7c-12.8-7.7-28.1-3.3-28.2-3.2a2.26,2.26,0,0,1-2.7-1.4,2.17,2.17,0,0,1,1.4-2.7c.7-.2,17.2-5.1,31.7,3.6A2.25,2.25,0,0,1,47.5,47.1Zm4.1-9a2.61,2.61,0,0,1-2.2,1.3,3.08,3.08,0,0,1-1.3-.3C32,29.8,15.7,35.2,15.5,35.3a2.53,2.53,0,1,1-1.6-4.8,47.3,47.3,0,0,1,36.7,4.2A2.53,2.53,0,0,1,51.6,38.1Zm1.8-8.8a2.3,2.3,0,0,1-1.4-.4C33.4,19.1,14.3,25,14.1,25a3.1,3.1,0,1,1-1.9-5.9c.9-.3,21.8-6.7,42.7,4.3a3.13,3.13,0,0,1,1.3,4.2A3.2,3.2,0,0,1,53.4,29.3Z"/></g></g></svg>