<svg xmlns="http://www.w3.org/2000/svg" viewBox="0 0 157.87895 240.54665"><path d="M0,0V240.54665H157.879V0ZM117.00109,44.71443V44.056H93.67455V61.93357h18.11324v4.878H93.67455V90.211H88.10044a32.37672,32.37672,0,0,0-8.36116-.97573,22.03494,22.03494,0,0,0-9.407,1.95119,22.04774,22.04774,0,0,0-12.19388,12.35577,23.34451,23.34451,0,0,0-1.74635,8.77538,26.89276,26.89276,0,0,0,1.74635,9.42431,19.12031,19.12031,0,0,0,4.87852,7.4778,24.89389,24.89389,0,0,0,7.66571,4.878,30.98723,30.98723,0,0,0,10.10241,1.62907,28.49929,28.49929,0,0,0,5.229-.322,20.73917,20.73917,0,0,0,4.87865-1.29758c1.74112-.6536,3.13726-1.29758,4.52818-1.95118a31.43467,31.43467,0,0,0,3.48264-1.951V115.90284H82.52619v-4.55116h21.95133v21.12647l-.34512.32185a55.97422,55.97422,0,0,1-10.10765,5.52661,34.19373,34.19373,0,0,1-13.23968,2.27331,38.90413,38.90413,0,0,1-12.54436-2.27331,24.9725,24.9725,0,0,1-9.407-5.84846,30.51718,30.51718,0,0,1-5.92418-8.77538,26.97756,26.97756,0,0,1-2.09173-10.72671,26.44135,26.44135,0,0,1,2.09173-10.39976,30.71982,30.71982,0,0,1,5.92418-8.77538,7.83509,7.83509,0,0,1,2.43685-2.27317V44.72406H44.89352v-4.878H82.86635v4.878H66.83961V87.9475c.69023-.33162,1.04567-.33162,1.39092-.65361a30.12925,30.12925,0,0,1,12.19388-2.27331,43.25642,43.25642,0,0,1,6.61991.32213c.34525,0,1.04579.32212,1.39091.32212V39.83632h28.56586V44.056h.01556Z"/></svg>