<svg xmlns="http://www.w3.org/2000/svg" viewBox="0 0 516 145.9"><title>tyme-bank-black</title><polygon points="195.2 35.6 146.8 35.6 146.8 47 164.5 47 164.5 97.5 177.5 97.5 177.5 47 195.2 47 195.2 35.6"/><path d="M205.2,83.4H205l-9.7-30.7H182.8l15,42.1a8.68,8.68,0,0,1,.5,2.8,6.63,6.63,0,0,1-1.1,3.6,4.51,4.51,0,0,1-3.4,1.9,20.48,20.48,0,0,1-3.5-.1l-3.4-.3v10.1l3.6.3c1.2.1,2.4.1,3.6.1,4,0,7.2-.8,9.4-2.3s4-4.2,5.3-7.8l17.8-50.4H214.5Z"/><path d="M290.2,55.1a12.27,12.27,0,0,0-5-2.8,20.85,20.85,0,0,0-6.3-.9,13,13,0,0,0-7.7,2.3,18.38,18.38,0,0,0-5.2,5.2,10.93,10.93,0,0,0-5.1-5.8,16.39,16.39,0,0,0-7.4-1.6,14.43,14.43,0,0,0-7.5,1.9,18,18,0,0,0-5.6,5.4h-.2V52.7H229.1V97.5h11.7v-26a13,13,0,0,1,.9-5.3,7.49,7.49,0,0,1,2.2-3.1,8.71,8.71,0,0,1,2.6-1.5,6.85,6.85,0,0,1,2.2-.4,7.4,7.4,0,0,1,4.3,1,5.32,5.32,0,0,1,2.1,2.6,13.53,13.53,0,0,1,.7,3.6c.1,1.3.1,2.6.1,3.9V97.5h11.7v-25a27.28,27.28,0,0,1,.3-4.1,9.56,9.56,0,0,1,1.2-3.6,7.49,7.49,0,0,1,2.4-2.6,7,7,0,0,1,4-1,7.26,7.26,0,0,1,3.9.9,6,6,0,0,1,2.2,2.3,9,9,0,0,1,.9,3.5c.1,1.3.2,2.7.2,4.3V97.6h11.7v-30a20.12,20.12,0,0,0-1.2-7.4,10.68,10.68,0,0,0-3-5.1"/><path d="M336.4,59.6a18.15,18.15,0,0,0-6.7-5.9,19.32,19.32,0,0,0-9.5-2.2,21.78,21.78,0,0,0-8.9,1.8,20.42,20.42,0,0,0-6.9,5,23.43,23.43,0,0,0-4.5,7.5,29.58,29.58,0,0,0-.1,18.9,23,23,0,0,0,4.3,7.5A18.67,18.67,0,0,0,311,97a23.8,23.8,0,0,0,9.1,1.7,21.78,21.78,0,0,0,12.4-3.5c3.4-2.3,6-6.2,7.6-11.5H329.8a7.39,7.39,0,0,1-3.1,3.9,10.29,10.29,0,0,1-6.1,1.9c-3.3,0-5.8-.9-7.6-2.7s-2.7-4.7-2.9-8.7h30.8a36.58,36.58,0,0,0-.8-10,24.16,24.16,0,0,0-3.7-8.5M310.2,70.3a17.67,17.67,0,0,1,.5-2.9,9.31,9.31,0,0,1,4.6-5.6,9.36,9.36,0,0,1,4.7-1c2.9,0,5,.8,6.4,2.4a14.12,14.12,0,0,1,2.9,7.1Z"/><path d="M380,64.8v-.2a13,13,0,0,0,4.2-1.8,14.39,14.39,0,0,0,5.3-7.4,14.87,14.87,0,0,0,.7-4.7,14.21,14.21,0,0,0-1.6-7.2,13.58,13.58,0,0,0-4.2-4.7,16.21,16.21,0,0,0-6-2.5,33.53,33.53,0,0,0-7.1-.7H346.4V97.5h24.9a32.6,32.6,0,0,0,8.2-.9,24.17,24.17,0,0,0,5.8-2.3,15.58,15.58,0,0,0,3.8-3.3,14.91,14.91,0,0,0,2.1-3.9,19.47,19.47,0,0,0,1-3.8,20,20,0,0,0,.2-3.3A15.51,15.51,0,0,0,389,69.8a12.83,12.83,0,0,0-9-5M352,40.6h19.3c8.9,0,13.3,3.9,13.3,11.6a11.5,11.5,0,0,1-.8,4.1,9,9,0,0,1-2.5,3.3,12.51,12.51,0,0,1-4.1,2.3,20.53,20.53,0,0,1-5.9.8H352Zm33.6,45.3a10,10,0,0,1-3.4,3.9,11.72,11.72,0,0,1-5,2,28.8,28.8,0,0,1-5.9.6H352V67.7h19.3c5,0,8.9,1,11.5,3s4,5,4,9a14,14,0,0,1-1.2,6.2"/><path d="M429.6,89.6V65.8a16.63,16.63,0,0,0-1.4-7.3,11.27,11.27,0,0,0-3.6-4.4,14.77,14.77,0,0,0-5-2.1,26,26,0,0,0-5.6-.6,24.32,24.32,0,0,0-6.8.9,15.62,15.62,0,0,0-5.3,2.7,13.11,13.11,0,0,0-3.6,4.7,19.42,19.42,0,0,0-1.6,6.8h5.2c.1-3.6,1.2-6.3,3.3-7.9a13,13,0,0,1,8.1-2.5,19.64,19.64,0,0,1,4.3.4,11.25,11.25,0,0,1,3.6,1.4,7.32,7.32,0,0,1,2.4,2.8,10.18,10.18,0,0,1,.9,4.6,7.56,7.56,0,0,1-.5,2.9,4,4,0,0,1-1.3,1.8,5.79,5.79,0,0,1-2.1.9,20.32,20.32,0,0,1-2.9.4c-2.8.3-5.6.7-8.3,1.1a27.7,27.7,0,0,0-7.4,2,12.34,12.34,0,0,0-5.2,4,12.16,12.16,0,0,0-2,7.3,15.14,15.14,0,0,0,1.1,5.9,11.43,11.43,0,0,0,3.1,4.1,10.72,10.72,0,0,0,4.5,2.3,20,20,0,0,0,5.6.7,21.18,21.18,0,0,0,5.4-.6,14.61,14.61,0,0,0,4-1.7,12.18,12.18,0,0,0,3.2-2.8,33,33,0,0,0,2.9-3.9h.2a30.48,30.48,0,0,0,.2,3.2,5,5,0,0,0,.9,2.5,4.31,4.31,0,0,0,1.9,1.6,7.31,7.31,0,0,0,3.2.6,9.72,9.72,0,0,0,1.8-.1,11,11,0,0,0,1.6-.3V92.6a4.31,4.31,0,0,1-1.7.3c-2.1,0-3.1-1.1-3.1-3.3m-5.2-9.5a13.82,13.82,0,0,1-1.2,5.9,14.25,14.25,0,0,1-3.2,4.4,15.85,15.85,0,0,1-4.7,2.8,18,18,0,0,1-5.7,1,11.33,11.33,0,0,1-3.6-.6,8.72,8.72,0,0,1-3.1-1.8,8.26,8.26,0,0,1-2.1-2.8,8.74,8.74,0,0,1-.8-3.7,6.57,6.57,0,0,1,1.9-5.1,11.41,11.41,0,0,1,4.7-2.7,37.81,37.81,0,0,1,6.4-1.4c2.3-.3,4.6-.7,6.8-1.1a17.55,17.55,0,0,0,2.5-.6,2.85,2.85,0,0,0,1.9-1.4h.2v7.1Z"/><path d="M469.6,56.1a11.34,11.34,0,0,0-4.8-3.4,20.32,20.32,0,0,0-7.5-1.2A14.47,14.47,0,0,0,449,54a13.2,13.2,0,0,0-5.3,6.6h-.2V52.9h-5.2V97.7h5.2V71.4a23.59,23.59,0,0,1,1-6.1,15.29,15.29,0,0,1,2.6-4.9,11.7,11.7,0,0,1,4.1-3.2,12.47,12.47,0,0,1,5.6-1.2,11.49,11.49,0,0,1,5.2,1,7.76,7.76,0,0,1,3.3,2.9,11.08,11.08,0,0,1,1.7,4.3,28.92,28.92,0,0,1,.5,5.3V97.4h5.2V68.6a31.39,31.39,0,0,0-.7-7.2,10.77,10.77,0,0,0-2.4-5.3"/><polygon points="496.6 69.3 514.7 52.7 507.8 52.7 484.2 74.4 484.2 35.6 479 35.6 479 97.5 484.2 97.5 484.2 80.5 492.6 73.1 509.4 97.5 516 97.5 496.6 69.3"/><polygon points="85.1 0 0 17.5 0 31.7 77.9 18.2 122.7 34.8 122.7 24.5 85.1 0"/><polygon points="0 37 0 51.7 67.1 46 122.7 52.1 122.7 39.1 75.1 25.5 0 37"/><polygon points="0 56.5 0 71.5 54.5 75.4 122.7 72 122.7 56.6 64 52.9 0 56.5"/><polygon points="0 88.6 43.7 102.6 122.7 91.5 122.7 76.6 51.4 82.1 0 76.1 0 88.6"/><polygon points="0 102.8 33.7 127.9 122.7 111.3 122.7 97 40.7 109.9 0 93 0 102.8"/><path d="M516,135.7a4.56,4.56,0,0,0-3.2-4.8l-3.8-2c-1.2-.6-1.8-1.2-1.8-2v-.4a1.39,1.39,0,0,1,.5-1,3.41,3.41,0,0,1,1.6-.4h5a.53.53,0,0,0,.6-.6v-1.7a.53.53,0,0,0-.6-.6h-5.7c-3.3,0-4.9,1.5-4.9,4.6a4.55,4.55,0,0,0,.8,2.7,7.44,7.44,0,0,0,2.5,1.9l3.7,1.8a2.3,2.3,0,0,1,1.6,2.2v.4c0,1.1-.7,1.6-2.2,1.6h-5.8a.53.53,0,0,0-.6.6v1.7a.53.53,0,0,0,.6.6h6.3c3.7.1,5.4-1.5,5.4-4.6m-18.3,4.7h2.2c.2,0,.3,0,.4-.1s.1-.2.1-.5V122.9a.53.53,0,0,0-.6-.6h-2.2c-.4,0-.5.2-.5.6v16.9a.53.53,0,0,0,.6.6m0-20.6h2.2a.53.53,0,0,0,.6-.6V116a.53.53,0,0,0-.6-.6h-2.2c-.4,0-.5.2-.5.6v3.2c-.1.4.1.6.5.6m-14.8,20V128.3c0-2,.9-3,2.8-3h1.6c1.7,0,2.5.9,2.5,2.6v11.8a.53.53,0,0,0,.6.6h2.2a.53.53,0,0,0,.6-.6v-12a5.78,5.78,0,0,0-1.3-4.1,5.22,5.22,0,0,0-3.8-1.4h-1.5c-1.8,0-2.9.6-3.5,1.9H483V116a.53.53,0,0,0-.6-.6h-2.2a.53.53,0,0,0-.6.6v23.7a.53.53,0,0,0,.6.6h2.2c.3.1.5-.1.5-.5m-14.2-14.2v9.3a4.88,4.88,0,0,0,5.4,5.4H476a.53.53,0,0,0,.6-.6v-1.8a.53.53,0,0,0-.6-.6h-1.3a2.33,2.33,0,0,1-2.6-2.6v-9.1a.37.37,0,0,1,.4-.4h3.2a.53.53,0,0,0,.6-.6v-1.8a.53.53,0,0,0-.6-.6h-3.2c-.3,0-.4-.1-.4-.4v-3.2a.53.53,0,0,0-.6-.6h-2.2a.53.53,0,0,0-.6.6v3.2c0,.2-.1.4-.3.4h-1.6a.53.53,0,0,0-.6.6v1.8c0,.2,0,.4.1.4a2,2,0,0,0,.5.1h1.6c.2.2.3.3.3.5m-18.5,0v9.3a5.55,5.55,0,0,0,1.4,4,5.72,5.72,0,0,0,4,1.4h1.9a.53.53,0,0,0,.6-.6v-1.8a.53.53,0,0,0-.6-.6h-1.3a2.33,2.33,0,0,1-2.6-2.6v-9.1a.37.37,0,0,1,.4-.4h3.2a.53.53,0,0,0,.6-.6v-1.8a.53.53,0,0,0-.6-.6H454c-.3,0-.4-.1-.4-.4v-3.2a.53.53,0,0,0-.6-.6h-2.2a.53.53,0,0,0-.6.6v3.2c0,.2-.1.4-.3.4h-1.6a.53.53,0,0,0-.6.6v1.8c0,.2,0,.4.1.4s.2.1.5.1h1.6c.2.2.3.3.3.5m-14.3,11.1a2.81,2.81,0,0,1-.6-2v-6.9a2.81,2.81,0,0,1,.6-2,2.55,2.55,0,0,1,1.9-.6h2.1a2.3,2.3,0,0,1,2.5,2.6v6.9c0,1.7-.8,2.6-2.5,2.6h-2.1a2.71,2.71,0,0,1-1.9-.6m8.4,2.2a5.72,5.72,0,0,0,1.4-4v-7.1a6,6,0,0,0-1.4-4.1,5.07,5.07,0,0,0-3.9-1.4h-3a5.3,5.3,0,0,0-3.9,1.4,5.81,5.81,0,0,0-1.4,4.1v7.1a5.55,5.55,0,0,0,1.4,4,5,5,0,0,0,3.9,1.5h3a5.12,5.12,0,0,0,3.9-1.5m-22.1-2.5h-1.6c-1.6,0-2.4-.9-2.4-2.6v-5.9c0-1.8.8-2.6,2.4-2.6h4.1c.3,0,.4.1.4.4v7.8a2.59,2.59,0,0,1-2.9,2.9m2.7,1.2h.1v2.7c0,1.8-.8,2.6-2.5,2.6h-5.9a.53.53,0,0,0-.6.6v1.8a.53.53,0,0,0,.6.6h6.5a5.3,5.3,0,0,0,3.9-1.4,5.72,5.72,0,0,0,1.4-4V122.9a.53.53,0,0,0-.6-.6h-7.7a5.3,5.3,0,0,0-3.9,1.4,5.81,5.81,0,0,0-1.4,4.1V134a5.78,5.78,0,0,0,1.3,4.1,4.7,4.7,0,0,0,3.8,1.4h1.5a3.53,3.53,0,0,0,3.5-1.9m-30.2-7.5v-2.3a2.81,2.81,0,0,1,.6-2,2.55,2.55,0,0,1,1.9-.6h1.9a2.55,2.55,0,0,1,1.9.6,2.81,2.81,0,0,1,.6,2v2.3c0,.2-.1.4-.3.4h-6.1c-.4,0-.5-.1-.5-.4m10,9.7V138a.53.53,0,0,0-.6-.6h-6.9c-1.7,0-2.5-.9-2.5-2.6v-1.5a.37.37,0,0,1,.4-.4h9.2a.53.53,0,0,0,.6-.6v-4.5a6,6,0,0,0-1.4-4.1,5.16,5.16,0,0,0-4-1.4h-2.8a5.3,5.3,0,0,0-3.9,1.4,5.81,5.81,0,0,0-1.4,4.1v7.1a5.55,5.55,0,0,0,1.4,4,5,5,0,0,0,3.9,1.5h7.4a.53.53,0,0,0,.6-.6m-29.6-16.9,4.6,16.9a.7.7,0,0,0,.8.6h3.3a.76.76,0,0,0,.8-.6l4.6-16.9c.1-.4,0-.6-.4-.6h-2.3a.66.66,0,0,0-.7.6l-3.5,14.3h-.2l-3.6-14.3a.66.66,0,0,0-.7-.6h-2.3c-.3,0-.4.2-.4.6m-2.6-.1.7-5.1c0-.2,0-.3-.1-.4s-.2-.1-.4-.1h-2c-.4,0-.6.2-.5.5l.7,5a.53.53,0,0,0,.6.6h.4a.63.63,0,0,0,.6-.5m-8.3,15.7h.1v1.3a.53.53,0,0,0,.6.6h2.2a.53.53,0,0,0,.6-.6V122.9a.53.53,0,0,0-.6-.6h-2.2a.53.53,0,0,0-.6.6v11.5c0,2-.9,3-2.8,3h-1.6a2.3,2.3,0,0,1-2.5-2.6V122.9a.53.53,0,0,0-.6-.6h-2.2a.53.53,0,0,0-.6.6v12a5.78,5.78,0,0,0,1.3,4.1,4.7,4.7,0,0,0,3.8,1.4h1.5c1.9,0,3-.7,3.6-1.9m-23.4-1.8a2.81,2.81,0,0,1-.6-2v-6.9a2.81,2.81,0,0,1,.6-2,2.55,2.55,0,0,1,1.9-.6h2.1a2.3,2.3,0,0,1,2.5,2.6v6.9c0,1.7-.8,2.6-2.5,2.6h-2.1a2.55,2.55,0,0,1-1.9-.6m8.4,2.2a5.3,5.3,0,0,0,1.4-4v-7.1a6,6,0,0,0-1.4-4.1,5.07,5.07,0,0,0-3.9-1.4h-3a5.3,5.3,0,0,0-3.9,1.4,5.81,5.81,0,0,0-1.4,4.1v7.1a5.55,5.55,0,0,0,1.4,4,5,5,0,0,0,3.9,1.5h3a5.28,5.28,0,0,0,3.9-1.5m-18.7.9V132l6.4-13.7a.45.45,0,0,0,0-.5.52.52,0,0,0-.4-.2h-2.7a.73.73,0,0,0-.7.6l-4.2,9.8h-.2l-4.2-9.8c-.2-.4-.4-.6-.7-.6h-2.7a.52.52,0,0,0-.4.2.45.45,0,0,0,0,.5l6.4,13.7v7.8a.53.53,0,0,0,.6.6h2.2a.53.53,0,0,0,.6-.6"/></svg>