<svg xmlns="http://www.w3.org/2000/svg" viewBox="0 0 180 55.19"><title>visa-black</title><g data-name="Layer 2"><g data-name="Layer 1"><path d="M63.41 54.4L72.52.93H87.1L77.98 54.4H63.41zM130.83 2.25A37.64 37.64 0 0 0 117.77 0c-14.4 0-24.54 7.25-24.63 17.64-.08 7.68 7.24 12 12.77 14.53s7.58 4.29 7.55 6.63c0 3.58-4.53 5.22-8.72 5.22A30.55 30.55 0 0 1 91 41.22l-1.88-.85-2 12c3.4 1.49 9.7 2.79 16.23 2.85 15.32 0 25.26-7.17 25.38-18.27.05-6.08-3.83-10.71-12.24-14.53-5.09-2.47-8.21-4.12-8.18-6.63 0-2.22 2.64-4.6 8.35-4.6a26.88 26.88 0 0 1 10.91 2l1.31.62 2-11.59M168.2 1h-11.26c-3.49 0-6.1 1-7.63 4.43l-21.64 49H143s2.5-6.59 3.07-8h18.66c.44 1.87 1.77 8 1.77 8H180L168.2 1m-18 34.46c1.24-3.1 5.8-14.96 5.8-14.96s1.2-3.1 1.93-5.1L159 20l3.37 15.44zM51.19 1L36.92 37.43 35.4 30c-2.66-8.54-10.93-17.8-20.18-22.43l13 46.76h15.42L66.63 1H51.19"/><path d="M23.69.94H.19L0 2c18.28 4.47 30.38 15.17 35.4 28L30.29 5.45c-.88-3.39-3.44-4.4-6.61-4.51"/></g></g></svg>