<svg xmlns="http://www.w3.org/2000/svg" viewBox="0 0 228.9 109.86"><path d="M60.79,14.54h0a5.92,5.92,0,0,1,11.84,0h0v7.29H60.79Zm-8.55-.05h0V37.71a14.5,14.5,0,0,0,29,0H72.65a5.92,5.92,0,0,1-11.84,0h0V30.38h20.4V14.49h0a14.47,14.47,0,0,0-28.94,0"/><path d="M72.66,14.54v7.29H60.79V14.54h0a5.92,5.92,0,0,1,11.84,0Zm0,15.83h8.55V14.49h0a14.47,14.47,0,0,0-28.94,0h0V37.71a14.5,14.5,0,0,0,29,0H72.65a5.92,5.92,0,0,1-11.84,0h0V30.37Z"/><path d="M208.49,14.54h0a5.92,5.92,0,1,1,11.83-.48648q.01.24313,0,.48648h0V37.71h0a5.92,5.92,0,1,1-11.83.48648q-.01-.24314,0-.48648h0Zm-8.55-.05h0V37.71a14.48,14.48,0,0,0,28.95,0V14.49h0a14.47,14.47,0,1,0-28.94,0"/><path d="M171.59,21.8V8.64h5.93a5.92,5.92,0,0,1,5.92,5.92h0V15.9h0a5.92,5.92,0,0,1-5.92,5.92h-5.93m0-21.72h-8.55V52.18h8.55V30.36h1.65a5.92,5.92,0,0,1,5.92,5.92l0,.02v1.41h0a14.47,14.47,0,0,0,14.47,14.47V43.63a5.92,5.92,0,0,1-5.92-5.92h0V36.3a14.38,14.38,0,0,0-2.52-8.15,14.45,14.45,0,0,0,6.78-12h0v-2h0A14.47,14.47,0,0,0,177.52.06h-5.93"/><path d="M35.14.06V37.71c0,3.27-1.57,5.92-4.52,5.92s-4.51-2.65-4.51-5.92V.06H17.57V37.71c0,3.27-1.57,5.92-4.52,5.92s-4.51-2.65-4.51-5.92V.06H0V37.71c0,8,5.84,14.47,13,14.47a12.31,12.31,0,0,0,8.79-3.79,12.31,12.31,0,0,0,8.78,3.79c7.21,0,13.06-6.48,13.06-14.47V.06Z"/><path d="M88.89,14.54a14.41006,14.41006,0,0,0,4,9.95l15.06,9.43a5.92,5.92,0,1,1-10.47,3.84h0V34.12H88.89v3.64h0a14.47,14.47,0,1,0,25-10s-14-8.12-15-9.43a5.92,5.92,0,1,1,10.47-3.79v3.64h8.43V14.45h0a14.47007,14.47007,0,1,0-28.94.09"/><path d="M109.28,18.17h8.51V14.45h0a14.47,14.47,0,1,0-25,10.05l15.06,9.43a5.92,5.92,0,1,1-10.47,3.83h0V34.12H88.89v3.64h0a14.47,14.47,0,1,0,25-10s-14-8.12-15-9.43a5.92,5.92,0,1,1,10.47-3.79Z"/><path d="M125.15,14.5h0V37.71a14.47,14.47,0,1,0,28.94,0h0V26.1H140.36v8.55h5.19v3.06h0a5.92,5.92,0,0,1-11.84.00973V37.71h0V14.54h0a5.92,5.92,0,1,1,11.84-.00972V14.54h0v3.61h8.55V14.47h0a14.47,14.47,0,1,0-28.94,0"/><path d="M100.02,76.51c1.11-.74,2.27-1.86,2.27-3.28a2.63048,2.63048,0,0,0-5.26.1h0a4.66,4.66,0,0,0,1.25,3c-1.58,1-2.7,2-2.7,4a3.58,3.58,0,0,0,3.86,3.84,3.79,3.79,0,0,0,3.11-1.5l.83,1.21h1.77l-1.74-2.44a8.41988,8.41988,0,0,0,.95-3.64h-1.3a9.06018,9.06018,0,0,1-.51,2.46Zm-.63-1a4.48992,4.48992,0,0,1-1-2.38,1.25,1.25,0,1,1,2.48.06,2.9,2.9,0,0,1-1.46,2.32m2.39,6a2.94,2.94,0,0,1-2.18,1.23,2.35,2.35,0,0,1-2.53-2.44,3.46,3.46,0,0,1,1.82-3Z"/><path d="M225.67,79.79c.11,1.43-.36,3-2.08,3-2.52,0-2.22-3.26-2.27-5h6.12c-.09-2.94.13-6.79-3.94-6.79-3.33,0-4,4-4,6.61,0,5.08,1.7,6.66,4.08,6.66,2.65,0,3.92-2.06,3.81-4.53Zm-4.35-3.42c.07-1.49.11-3.8,2.2-3.8s2,2.33,2.06,3.8Zm-11.19,6.3h0a2.89,2.89,0,0,0,2.66,1.63c3.39,0,4-3.89,4-7.47,0-2.58-.93-5.8-4.12-5.8a3,3,0,0,0-2.61,1.74h0v-1.4h-1.73V88.22h1.79Zm4.85-5.21c0,3.4-.59,5.34-2.45,5.34-2.46,0-2.4-3.39-2.4-5.14s0-5.09,2.38-5.09,2.47,3.24,2.47,4.89m-9.33,5.21a2.4904,2.4904,0,0,1-.77,0c-.36-.19-.32-.64-.32-1v-7.2c0-.29.32-3.42-3.42-3.42-2.53,0-3.82,1.13-3.73,3.74h1.6c0-1.48.21-2.22,1.84-2.22,1.45,0,2,.54,2,2,0,.65,0,1.15-.34,1.45-.22.18-2.76,1.13-3.78,1.58a3.22,3.22,0,0,0-1.81,3.06c0,2.29.72,3.69,3.24,3.69a3.19,3.19,0,0,0,2.78-2h.05c.18,1.72.75,1.86,2.26,1.79a2.99962,2.99962,0,0,1,.41-.09Zm-2.94-2.43a2.3,2.3,0,0,1-2.02258,2.54737q-.07846.009-.15741.01262c-1.45,0-1.76-.81-1.76-2.08a2.24,2.24,0,0,1,1.1-2.17c1-.46,1.95-.84,2.84-1.36Zm-11.69-7.67c1.7,0,2.06,1.4,2.08,2.78h1.69c0-2.33-1.2-4.3-3.74-4.3-3.85,0-4.35,3.71-4.35,6.79,0,3.27.55,6.48,4.4,6.48,2.81,0,3.71-2.31,3.78-4.73h-1.7c-.09,1.54-.27,3.21-2.22,3.21-2.29,0-2.4-2.92-2.4-4.57s-.13-5.66,2.47-5.66m-17.1-1.18h-1.74V83.98h1.79V75.56a2.72,2.72,0,0,1,.81-2.26,2.58,2.58,0,0,1,1.77-.7c1.45,0,1.88.88,1.88,2.19v9.22h1.79V74.3c0-2.22-1.23-3.22-3.11-3.22a3.81,3.81,0,0,0-3.14,1.72h-.05Zm-7.83,0h-1.73V83.98h1.79V76.35c0-2.29,1.36-3.74,3.67-3.33V71.3a3.29,3.29,0,0,0-3.69,2.2h0Zm-6.89,8.4c.11,1.43-.36,3-2.08,3-2.52,0-2.22-3.26-2.27-5h6.12c-.09-2.94.13-6.79-3.94-6.79-3.33,0-4,4-4,6.61,0,5.08,1.69,6.66,4.07,6.66,2.65,0,3.92-2.06,3.81-4.53Zm-4.35-3.42c.07-1.49.12-3.8,2.2-3.8s2,2.33,2.06,3.8ZM149,67.97h-1.77v3.42h-1.74v1.52h1.74v9c0,1.9.79,2.08,1.86,2.06h2V82.45h-1.2c-1,0-.84-.54-.84-1V72.91h2.08V71.39h-2.1Zm-5.62,6.79c0-2.58-1.4-3.71-3.89-3.71a3.43,3.43,0,0,0-3.7,3.56c0,2.19,1.14,2.85,3.08,3.57,1.3.55,3.11.71,3.11,2.5,0,1.54-1,2.12-2.4,2.12-1.68,0-2.2-1-2.13-2.49h-1.66a3.86,3.86,0,0,0,.7,2.7,3.79,3.79,0,0,0,3.13,1.31c2.58,0,4.25-1.47,4.25-3.87s-1.81-2.81-3.62-3.63c-1.22-.52-2.56-.72-2.56-2.35,0-1.31.73-1.9,2-1.9,1.52,0,2.07.7,2,2.19Zm-11.93,5c.11,1.43-.37,3-2.09,3-2.51,0-2.22-3.26-2.26-5h6.11c-.09-2.94.14-6.79-3.94-6.79-3.33,0-4,4-4,6.61,0,5.08,1.7,6.66,4.08,6.66,2.65,0,3.91-2.06,3.8-4.53Zm-4.35-3.42c.07-1.49.11-3.8,2.19-3.8s2,2.33,2.07,3.8Zm-9.92-5h-1.86l-2,11.07h-.05l-2.28-11.02h-1.86l3.24,12.59h1.85l2-11.07h0l2.13,11.07h1.86l3.15-12.59H121.5l-2.2,11.07h0Zm-33.45,0H81.99V83.93h1.8V75.56a2.72,2.72,0,0,1,.81-2.29,2.58,2.58,0,0,1,1.77-.7c1.45,0,1.88.88,1.88,2.19v9.22h1.79V74.3c0-2.22-1.22-3.22-3.1-3.22a3.81,3.81,0,0,0-3.15,1.69h0Zm-10.48,0H71.38l-2,11.07h0L67.05,71.39H65.2l3.24,12.59h1.85l2-11.07h0l2.13,11.07h1.86l3.14-12.59H77.61l-2.2,11.07h0ZM61.3,77.82c0,3-.52,5-2.65,5s-2.65-2-2.65-5c0-3.8.82-5.25,2.65-5.25s2.65,1.45,2.65,5.25m1.86-.52c0-3.81-1.41-6.21-4.51-6.21s-4.5,2.4-4.5,6.21c0,5.43,1.78,7.06,4.5,7.06s4.51-1.61,4.51-7.06m-13.2-9.29H48.19v3.42H46.45v1.52h1.74v9c0,1.9.79,2.08,1.86,2.06h2V82.49H50.79c-1,0-.84-.54-.84-1V72.91h2.08V71.39h-2.1Zm-10,11.82c.11,1.43-.36,3-2.09,3-2.51,0-2.21-3.26-2.26-5h6.11c-.09-2.94.14-6.79-3.94-6.79-3.32,0-4,4-4,6.61,0,5.08,1.7,6.66,4.08,6.66,2.65,0,3.92-2.06,3.8-4.53Zm-4.35-3.42c.07-1.49.11-3.8,2.2-3.8s2,2.33,2.06,3.8Zm-11.19,6.3h0A2.89,2.89,0,0,0,27.1,84.3c3.4,0,4-3.89,4-7.47,0-2.58-.93-5.8-4.13-5.8a3,3,0,0,0-2.6,1.74h0v-1.4H22.64V88.22h1.79Zm4.85-5.21c0,3.4-.59,5.34-2.45,5.34-2.47,0-2.4-3.39-2.4-5.14s0-5.09,2.38-5.09,2.47,3.24,2.47,4.89m-9.33,5.21a2.48972,2.48972,0,0,1-.77,0c-.36-.19-.32-.64-.32-1V74.47c0-.29.32-3.42-3.42-3.42-2.53,0-3.83,1.13-3.74,3.74H13.3c0-1.48.21-2.22,1.84-2.22,1.45,0,2,.54,2,2,0,.65,0,1.15-.34,1.45-.23.18-2.76,1.13-3.78,1.58a3.21,3.21,0,0,0-1.81,3.06c0,2.29.72,3.69,3.24,3.69a3.19,3.19,0,0,0,2.78-2h.05c.18,1.72.74,1.86,2.26,1.79a2.99981,2.99981,0,0,1,.41-.09Zm-2.95-2.43a2.3,2.3,0,0,1-2.06757,2.511q-.06607.0064-.13244.009c-1.45,0-1.77-.81-1.77-2.08a2.25,2.25,0,0,1,1.11-2.17c.95-.46,1.95-.84,2.83-1.36ZM5.32,72.57c1.7,0,2.06,1.4,2.08,2.78H9.08c0-2.33-1.2-4.3-3.74-4.3-3.85,0-4.35,3.71-4.35,6.79,0,3.27.55,6.48,4.4,6.48,2.8,0,3.71-2.31,3.78-4.73H7.47c-.09,1.54-.27,3.21-2.22,3.21-2.29,0-2.4-2.92-2.4-4.57s-.14-5.66,2.47-5.66"/><path d="M225.85,92.61h-1.59v3.06H222.7v1.35h1.56v8c0,1.7.72,1.86,1.67,1.84h1.77v-1.35h-1.08c-.89,0-.75-.49-.75-.87V96.97h1.92V95.62H225.9Zm-11.06,3.06h-1.56v11.24h1.56V99.39a2.4,2.4,0,0,1,.73-2,2.27,2.27,0,0,1,1.58-.63c1.31,0,1.69.79,1.69,2v8.23h1.61V98.32a2.55,2.55,0,0,0-2.79-2.88,3.42,3.42,0,0,0-2.82,1.46h0Zm-6.24,7.5c.1,1.27-.32,2.69-1.87,2.69-2.26,0-2-2.91-2-4.43h5.49c-.08-2.63.12-6.07-3.54-6.07-3,0-3.62,3.54-3.62,5.91,0,4.53,1.52,5.94,3.66,5.94,2.38,0,3.52-1.84,3.42-4Zm-3.9-3.05c.06-1.34.1-3.4,2-3.4s1.79,2.08,1.85,3.4Zm-15.86-.73a2.37,2.37,0,0,1,.69-2,2.3,2.3,0,0,1,1.59-.63c1.3,0,1.69.79,1.69,2v8.23h1.6V99.47a2.41,2.41,0,0,1,.74-2,2.2801,2.2801,0,0,1,1.5-.63c1.38,0,1.73.71,1.73,2v8.23h1.61V98.94a3.57,3.57,0,0,0-.69-2.63,3.1,3.1,0,0,0-2.08-.79,3.39,3.39,0,0,0-3,1.78,3,3,0,0,0-2.69-1.78,3.19,3.19,0,0,0-2.69,1.58h0V95.67h-1.55v11.24h1.55Zm-6.08-6.78h-1.59v3.06h-1.56v1.35h1.56v8c0,1.7.71,1.86,1.67,1.84h1.77v-1.35h-1.08c-.89,0-.75-.49-.75-.87V96.97h1.87V95.62h-1.89Zm-5.25,6.07c0-2.3-1.26-3.32-3.5-3.32a3.07,3.07,0,0,0-3.31,3.18c0,2,1,2.55,2.76,3.19,1.16.49,2.79.63,2.79,2.23,0,1.37-.85,1.9-2.16,1.9-1.5,0-2-.85-1.91-2.22h-1.52a3.43,3.43,0,0,0,.63,2.4,3.39,3.39,0,0,0,2.8,1.17c2.32,0,3.83-1.31,3.83-3.45s-1.63-2.51-3.26-3.24c-1.09-.46-2.29-.65-2.29-2.1,0-1.17.65-1.7,1.79-1.7,1.36,0,1.85.63,1.79,2Zm-10.92,4.49c.1,1.27-.33,2.69-1.87,2.69-2.26,0-2-2.91-2-4.43h5.5c-.09-2.63.12-6.07-3.54-6.07-3,0-3.62,3.54-3.62,5.91,0,4.53,1.52,5.94,3.66,5.94,2.38,0,3.52-1.84,3.41-4Zm-3.91-3.05c.06-1.34.11-3.4,2-3.4s1.79,2.08,1.85,3.4Zm-8.56,6.79h1.75l3.4-11.24h-1.67l-2.56,9.89h0l-2.57-9.89h-1.67ZM142.79,95.67h-1.57v11.24h1.57V99.39a2.4,2.4,0,0,1,.73-2,2.3,2.3,0,0,1,1.59-.63c1.3,0,1.69.79,1.69,2v8.23h1.61V98.32a2.55,2.55,0,0,0-2.79-2.88,3.44,3.44,0,0,0-2.83,1.46h0Zm-5.1-3.92h-1.61v2h1.61Zm0,3.92h-1.61v11.24h1.61Zm-23.8,7.5c.1,1.27-.33,2.69-1.87,2.69-2.26,0-2-2.91-2-4.43h5.5c-.09-2.63.12-6.07-3.54-6.07-3,0-3.62,3.54-3.62,5.91,0,4.53,1.52,5.94,3.66,5.94,2.38,0,3.52-1.84,3.41-4Zm-3.91-3.05c.07-1.34.11-3.4,2-3.4s1.79,2.08,1.85,3.4Zm-6.3-3.3h0a3,3,0,0,0-2.61-1.46c-2.42,0-3.51,2.61-3.39,5.91,0,1-.25,5.94,3.31,5.94a2.68,2.68,0,0,0,2.75-1.77h0v1.47h1.55V91.75h-1.61Zm0,5.68c0,1.28-.47,3.36-2.14,3.36-2.19,0-2.28-2.2-2.28-4.63,0-3.46.88-4.51,2.22-4.51,2.16,0,2.2,2.85,2.2,4.39Zm-8.18,3.24a1.99973,1.99973,0,0,1-.69,0c-.33-.16-.28-.57-.28-.85V98.44c0-.26.28-3.06-3.08-3.06-2.27,0-3.43,1-3.35,3.34h1.44c0-1.31.19-2,1.65-2,1.3,0,1.79.48,1.79,1.76,0,.59,0,1-.31,1.29-.2.16-2.48,1-3.39,1.42a2.86,2.86,0,0,0-1.63,2.73c0,2,.65,3.29,2.91,3.29a2.85,2.85,0,0,0,2.5-1.82h0c.17,1.54.67,1.66,2,1.6a2.33029,2.33029,0,0,1,.36-.08Zm-2.71-2.17a2.06,2.06,0,0,1-1.81652,2.2776q-.09141.01029-.18348.0124c-1.31,0-1.59-.73-1.59-1.86a2,2,0,0,1,1-1.94c.85-.41,1.75-.75,2.54-1.22Zm-10-7.9H81.24v11.24h1.61V100.1c0-2,1.22-3.34,3.3-3V95.53a3,3,0,0,0-3.32,2h0Zm-6.12-3.06h-1.6v3.06H73.51v1.35h1.56v8c0,1.7.71,1.86,1.67,1.84h1.77v-1.35H77.43c-.89,0-.75-.49-.75-.87V96.97h1.87V95.62H76.66Zm-7.63,14.3a2.51,2.51,0,0,1-.53,1.78.83.83,0,0,1-.47.26v.91a2.73,2.73,0,0,0,.8-.4,2.61,2.61,0,0,0,.95-2.16c.08-.77.06-2.07.06-2.39H68.03v2ZM53.13,99.39a2.35,2.35,0,0,1,.7-2,2.26,2.26,0,0,1,1.58-.63c1.3,0,1.69.79,1.69,2v8.23h1.61V99.47a2.4,2.4,0,0,1,.73-2,2.33,2.33,0,0,1,1.5-.63c1.39,0,1.73.71,1.73,2v8.23h1.61V98.94a3.57006,3.57006,0,0,0-.69-2.63,3.08,3.08,0,0,0-2.08-.79,3.4,3.4,0,0,0-3,1.78,3,3,0,0,0-2.72-1.94A3.19,3.19,0,0,0,53.1,97.1h0V95.67H51.52v11.24h1.6Zm-5.06-.71c0-2.3-1.26-3.32-3.5-3.32a3.07,3.07,0,0,0-3.31,3.18c0,2,1,2.55,2.76,3.19,1.16.49,2.79.63,2.79,2.23,0,1.37-.86,1.9-2.16,1.9-1.5,0-2-.85-1.91-2.22H41.21a3.12,3.12,0,0,0,3.43,3.57c2.32,0,3.83-1.31,3.83-3.45s-1.63-2.51-3.26-3.24c-1.1-.46-2.3-.65-2.3-2.1,0-1.17.65-1.7,1.79-1.7,1.37,0,1.85.63,1.79,2Zm-9.78-6.93H36.67v2h1.61Zm0,3.92H36.67v11.24h1.61Zm-7.27,0H29.47v11.24h1.61V100.1c0-2,1.22-3.34,3.29-3V95.53a2.94,2.94,0,0,0-3.31,2h-.05Zm-6.95,11.24h1.61V95.67H24.06v7.22a3.74,3.74,0,0,1-.47,2,2.3,2.3,0,0,1-1.93,1c-1.14,0-1.45-.51-1.45-1.46V95.7h-1.6v8.6c0,2,1,2.87,2.72,2.87a3,3,0,0,0,2.69-1.77h0Zm-10.33-5.5c0,2.65-.47,4.45-2.38,4.45s-2.38-1.8-2.38-4.45c0-3.4.73-4.69,2.38-4.69s2.38,1.29,2.38,4.69m1.66-.5c0-3.4-1.26-5.55-4-5.55s-4.05,2.15-4.05,5.55c0,4.85,1.6,6.3,4.05,6.3s4-1.43,4-6.3M3.34,92.61H1.79v3.06H.18v1.35H1.79v8c0,1.7.72,1.86,1.67,1.84H5.23v-1.35H4.1c-.89,0-.75-.49-.75-.87V96.97H5.22V95.62H3.33Z"/><path d="M125.29,100.04a4,4,0,0,0,2.09-3,2.43042,2.43042,0,0,0-4.86.09h0a4.27,4.27,0,0,0,1.16,2.71c-1.46.92-2.5,1.83-2.5,3.67a3.3,3.3,0,0,0,3.57,3.52,3.51,3.51,0,0,0,2.87-1.38l.77,1.12h1.64l-1.61-2.24a8,8,0,0,0,.88-3.35h-1.21a8.34973,8.34973,0,0,1-.47,2.26Zm-.59-.88a4.10994,4.10994,0,0,1-.94-2.18,1.18,1.18,0,0,1,1.0748-1.27656q.02756-.00235.05521-.00344a1.19,1.19,0,0,1,1.16809,1.21151q-.00108.05943-.00809.1185a2.66,2.66,0,0,1-1.35,2.13m2.21,5.52a2.71,2.71,0,0,1-2,1.13,2.17,2.17,0,0,1-2.32-2.3,3.21,3.21,0,0,1,1.69-2.76Z"/><path d="M43.68,37.71V.06H35.13V37.71h0c0,3.27-1.57,5.92-4.52,5.92s-4.51-2.65-4.51-5.92V.06H17.57V37.71c0,3.27-1.57,5.92-4.52,5.92s-4.51-2.65-4.51-5.92V.06H0V37.71c0,8,5.84,14.47,13,14.47a12.31,12.31,0,0,0,8.79-3.79,12.31,12.31,0,0,0,8.78,3.79c7.22,0,13.06-6.48,13.06-14.47"/><path d="M154.09,37.71V26.1H140.36v8.55h5.19v3.06h0a5.92,5.92,0,0,1-11.84.00973V37.71h0V14.54h0a5.92,5.92,0,1,1,11.84-.00972V14.54h0v3.61h8.55V14.47h0a14.47,14.47,0,1,0-28.94,0h0V37.71a14.47,14.47,0,1,0,28.94,0h0"/><path d="M183.44,14.54h0V15.9h0a5.92,5.92,0,0,1-5.92,5.92h-5.93V8.64h5.93a5.92,5.92,0,0,1,5.92,5.92m4.28,23.17h0V36.32a14.38,14.38,0,0,0-2.52-8.15,14.45,14.45,0,0,0,6.78-12h0v-2h0A14.47,14.47,0,0,0,177.53.08H163.05v52.1h8.55V30.36h1.65a5.92,5.92,0,0,1,5.91,5.93l0,.01v1.41h0a14.47,14.47,0,0,0,14.47,14.47V43.63a5.92,5.92,0,0,1-5.92-5.92"/><path d="M220.34,14.54V37.71h0a5.92,5.92,0,0,1-11.84.00973V37.71h0V14.54h0a5.92,5.92,0,1,1,11.84-.00972Zm8.55,23.17V14.49h0a14.47,14.47,0,0,0-28.94,0h0V37.71a14.48,14.48,0,0,0,28.95,0"/></svg>